<svg xmlns="http://www.w3.org/2000/svg" xmlns:xlink="http://www.w3.org/1999/xlink" xmlns:lucid="lucid" width="818.05" height="67.09"><g transform="translate(-2361.7857142857147 -596.1409768682496)" lucid:page-tab-id="0_0"><path d="M2361.8 602.14a6 6 0 0 1 6-6h806.04a6 6 0 0 1 6 6v55.1a6 6 0 0 1-6 6H2367.8a6 6 0 0 1-6-6z" stroke="#000" stroke-opacity="0" stroke-width="3" fill-opacity="0"/><use xlink:href="#a" transform="matrix(1,0,0,1,2402.6884297520664,599.4955332546242) translate(0 43.9140625)"/><use xlink:href="#b" transform="matrix(1,0,0,1,2402.6884297520664,599.4955332546242) translate(311.40625 43.9140625)"/><use xlink:href="#c" transform="matrix(1,0,0,1,2402.6884297520664,599.4955332546242) translate(622.01171875 43.9140625)"/><defs><path d="M76-1434c1 5-4 17 5 15 0-8 7-13 21-15 4 8 12 11 10 25-10 0-15 5-15 16-12 8-25 13-41 5-8 17-16 32-25 20-13 1-13 14-21 20l31 6v35c-14 0-21 5-21 15H0c-4-51 10-94 0-137l5-5h71zm66 0h173l10 10v137h-10c1-32-10-36-20-20-2 20 5 19 30 31v157c-13-2-26-4-40-5v5l40 16v61h-15v10c10 0 15 3 15 10v244c-13 0-20 12-20 36 10 7-9 15-25 15-7 0-10-9-10-26h-6c2 30-15 26-40 26-9-5-12-16-10-31 24 1 11-21 10-35-3 2-4 6-10 5 13 11 2 37-21 30-18-6-26-24-25-51l15-5-10-30c13 0 20-9 20-26h41v-20c12-1 31 4 36-5h5c0-10-7-15-21-15l-5-31c-3 2-4 6-10 5 15 17-10 35-31 36v15c-2-4-7-6-15-5l-10 31-20-11v11h-51c-1-18 2-32 5-46-20 2-14-15-15-31l15-5c6 24 20 36 41 36v-5c-21-12-36-33-16-46 4 8 20 4 31 5 2-18-8-43 15-41v-10c-20 0-30-10-30-30-13 16-48-14-61 0v-10c17 1 15-11 15-26h-10v10c-12-2-22-6-36-5-2 10 15-1 10 15l-20 6v-26h15c2-13-2-21-5-30 13-6 20-16 20-31 19-3 23 8 31 15-16 9-4 26 0 41h10v-20c9 0 19 10 10 15-2 7 5 5 10 5l31-10v-10c-19 0-41-12-66-36v-41h-10c0 8-7 18-21 31-3-8-19-4-30-5 15 40 15 49-31 76v5H0c-2-31 2-55 10-76H0v-20h10v15c28-1 42-6 41-26-8-2-4 6-5 11-27-3-41-15-41-36 11-11 26-18 51-15-2 12-6 21-5 35h5c1-13 4-20 10-20-1-19-19-46 0-56v-5c-10 0-15-3-15-10-8 12-24-4-26-15 19 2 33-16 21-26 6-9 14 5 25 0l26-5 5 31c16-5 25-18 35-16 4-15-12-11-20-15l15-46c-9 0-15-10-20-30l10-15c10 2 23 15 31 5-3-12-10-22-11-36zm250 0h122l10 10c-7 5-12 12-10 26 16 2 19-9 20-36h86c3 6 7 5 11 0h66c2 20 11 32 20 20 8 1 2-3 0-5v-15h127v15c5-10 10 4 20 0 2-8-7-6-5-15h183l11 10v244l-11 10H910v-15c-7 0-10 5-10 15H610l-15-10-15 10H392c-15-5-10-30-11-50 5-4 6-8 0-11v-157h11v-15h-11c-2-16 2-26 11-31zm-178 36l-11 20c13 2 16-5 21-10zm66 10c10 42 18 48 35 25-12 2-5-47-35-25zm147 20l15 10c2-7 8-16 0-20-9-1-10 7-15 10zm-249 20c11 0 13-10 20-15-11 0-13 10-20 15zm671-15c4 15-25 29-35 15l-5 21h30c5-12 13-21 15-36h-5zm-249 15l-5 21c12 2 15-5 20-10zm-381 11v25c-9-1-20-10-11-15h-15v30h-10v10h10c0-12 15-19 46-20 8-13 16-20 25-20v-10h-45zm269 10v20c5-5 12-8 10-20h-10zm300 25h15v-15zm-366 10c-13 6 3 25 10 11 11 11 18 25 15 50 9-1 20 0 21-10-9-22-25-39-46-51zm-239 16c-9 1-14 6-15 15 13 3 12-8 15-15zm-97 20c-5 19 20 5 31 5v-15zm158 0l5 25h-10c2 5-4 19 5 16 18-6 31-17 51-21v-5c-13-2-24-6-41-5v-10h-10zm-122 5v15h10v-15h-10zm71 15c-6-10-20-1-20 10 12 2 15-5 20-10zm397 0v10c12 2 15-5 20-10h-20zm-153 10v11c13 2 15-6 21-11h-21zm275 0l-10 31c13-4 22-12 20-31h-10zm-549 16v15h10v-15h-10zm310 5v20c10 0 14-22 0-20zm310 10c-2 12 5 15 10 20v-20h-10zm-473 10c-38 4-43 38-91 31-6-9-15-11-26-5v20c10 0 26 10 31 0l51 15c1-11-3-15-16-15 2-13 15-16 21-25h30c2-8 9-17 0-21zm-102 102c-13 9 5 19 11 25 11-11 45-4 40 16 6-1 19 4 16-6-14-15-36-26-67-35zm72 41h20l-10-11zm-280-6h10c6 20 4 40 0 61-16-7-8-39-10-61zm229 11c-1-12-8 0-5 5 7 0 10 7 10 20h10zm-178 5c7 0 17 17 30 51h5l6-26c-11 0-16-3-16-10l26-5c10 5 17 13 30 15 4 23-10 29-35 26 0 15-5 27-16 35 11 0-3 3 0 10l11 31-16 10c-7-10-22-22-30-5 0 26 12 41 35 46 0 11 4-4 11 0 13 5 10 27 10 45-48-3-19 42 10 36 0-20 3-30 10-30v5c14 2 25-21 0-21-11-8-2-29 5-35 27 0 41 12 41 35-7 0-10 9-10 26h-11v15c45 31 67 50 67 56-4 11 24 6 30 15 1 20-1 36-5 51 15 2 27-16 36-5 1-16-1-19-21-20 0-7 9-11 26-11v-5l30 11c0-11 3-17 5-26h10c-1 51 4 109-5 153 11 118 2 255 5 381 0 12-7 26-20 41v10c2-6 11-5 20-5-7 25 4 67 0 101L295 0c-19 2-32-2-41-10 6-2 5-12 5-21l-30 11v10h-31v-21c9-3 14-10 26-10-1-9-6-14-16-15 0 9-10 19-30 31l-31-6c7-38 9-36 41-35 0-10 9-15 26-15 6-13 17-20 20-36h-20v-30c35-6 31 25 61 25v-5c-19 0-27-13-26-36 14 0 24-8 31-25 10-2-1 15 15 10 1-23-7-37-10-56h-10l-16 31 11 10-56 40-16-5c2 21-11 29-40 36-7-15-18-24-31-25-6-30 21-28 41-21-12-9 3-28 5-40h-26c5 2 7 7 6 15h-16c-3-9-10-14-10-26h-5c2 41-10 40-36 31-1 14-7 23-10 35-6-11-16 0-20 6 40-2 35 19 41 45l-41 5c9 6 3 27 5 41 40-3 30 12 31 41-32 0-41 7-46-31-47 3-35-13-36-46 5 0 12 2 10-5-13 0-20-3-20-10v-91l36-31H0c8-14 17-36 0-51v-300c0-7 5-10 15-10v-5c-10 0-15-3-15-10v-112c4-5 14-16 20-5 4 1 6-1 5-5L0-753v-198c12-2 15 5 20 10h-5c3 8 2 20 16 16 0 0-6-38 30-36v-5l-36-10c-4-13 14-18 0-26 13-6 21-16 26-30zm198 25c-9-2-4 10-5 15h10zm5 26c1 29-14 34-35 25l-36 5v15l71-15c12-5 13-24 0-30zm132 91c21 0 37 15 46 46l-5 5c12 3 15-10 20 0 12 0 14-10 21-15-8-13-26-15-26-36 8-1 14 11 21 0 25 7 66 7 91 0-2 8 11-5 21 0 12 7 26 3 40 0 45 0 95-3 127 10 5-5 15-16 21-5l5-5h203c3 5 11 6 10 15-13 2-28-11-35 0v5l41 11c3-7 1-20 15-16v92c-25-3-43-12-56-26h-31v-10h-30c0-13-7-20-21-20 5 31 17 52 26 51 18-3 9 20 25 20-1-24 22-18 31-30 13 6 29 29 46 15h5c7 29 5 66 5 102-9 5 1 7 0 15l-5 35c-17-1-40-11-46 6 0 0-12 2-10-6-27 7-62 6-97 6-3-6-7-6-10 0-14-2-36 5-41-6-17 18-57-9-76 6-19 0-42 4-46-11-43 18-114 9-173 11-7 0-13-10-20-31-10 0-10 10-15 15l-16-5c6 26-31 21-55 21v-11h25c-4-10-6-14 0-25 8-1 13 11 20 0 3-19 0-47-20-31-9 0-13-3-20-5 8 6-5 20 5 31-7 9-2 28-21 25v-61c5-3 5-7 0-10v-107c15-2 15 11 21 41h5c-1-25 7-33 10-46-10-16-34-18-31-46 12-5-4-10 0-20zM41-875c-11-17-29 9-16 16 11 1 10-11 16-16zm523-5c-9 1-15 6-15 16 6-4 18-2 15-16zm26 0c-11 2-23 1-20 16 10-2 22-1 20-16zm-305 21c5 5 8 12 20 10 0-9-3-14-5-21-9-1-10 8-15 11zm488 0c10 0 22 7 36 20 0-10 5-15 15-15 0 5 12 14 35 25v-10c-16 0-31-10-45-31-18-1-37-2-41 11zm-529 10c-11-1-1 14 0 20h20c3-16-13-14-20-20zm320 10v15c17 4 9-10 0-15zm-96 10c0 19 8 32 25 41 8-14 21-23 26-41h-5c0 7-7 10-21 10 0 5 2 12-5 10 0-14-5-21-20-20zM51-803c-9-15-19 2-15 15zm661-6v11h25v-11c-4 11-17 3-25 0zm-163 11c-2 19 13 25 21 10zm265 10c-1 16 14 29 25 10-5-7-11-12-25-10zm-372 10v10h11c0 7 5 10 15 10v36h10l5-26c-19-20-33-30-41-30zm377 20v21h5v-21h-5zm96 10l5 26 16-15c-6-5-8-13-21-11zm-386 11l10 15-25 10c0 5 7 10 20 15-4-3 22-21 30-10-3-7-3-27-10-15h-10v-15h-15zm213 10v20l16 5 10-30zM71-686c5 1 17-4 15 5l-25 5v10h10c-1 18 2 32 5 46l-30 10v-5l-26 5c-2 8 7 6 5 15l51-10v10h10v-36h26c-4-12-6-24 0-35h35c4 7 22 13 11 20-2 13 6 15 10 21v-16c18-1 20 14 30 21 1 9-9 10 0 15 0 12-3 20-5 30h10l5-40c3 4 8 6 16 5v-5c-7 0-10-9-10-26-48-4-12-35-6-56h-15v11c-13 3-16-4-25-6 2-10 5-19 5-30h-10l-5 30c-3-3-4-6-11-5l-5 16h-35v20H86v-10c16 5 10-11 6-21 15 2 17-9 25-35H97zm366-21c-1 4 1 6 5 5l26-5c4-20-21-2-31 0zm366-5c0 21 11 30 16 46h5v-31c-7 0-10-5-10-15h-11zm-132 51c1 5-4 17 5 15 5-4 17 0 16-10zm143 0c0 10-4 15-11 15v10l21-10v-15h-10zm-697 41c1 28-9 27-25 20 7 8 10 20 10 36 19 2 18-4 25-26-12-7 9-10 15-15 0 5-2 12 5 10v-20zm158 5v20c5 0 10-7 15-20h-15zm-16 30c-16-4-8 10 0 15v-15zm-213 5c-5 8-17 10-15 26 7 2 16 8 20 0v-26h-5zm168 46c1 5-4 18 5 15 7-2 18-2 15-15h-20zm66 0c-5 7-15 9-16 20l6 36h15c0-17 8-25 25-25-2-13-12-24-30-31zM51-503c-2 16 10 17 15 25l26-10c-2-19-21-14-36-10zm127 10v10c21 2 32-5 36-20-15 1-24 7-36 10zm86 25c-10 0-6 15-10 21h10v-21zM56-437c-7-2-16-8-20 0-3 6 7 8 5 0 2 4 7 6 15 5v-5zm5 5c0 11 10 13 15 20 0-11-10-13-15-20zm147 0v10l31 5c3 18-9 27-15 46 16 1 19-1 20-21l31-5v-25zm-81 20c-9 2-20 0-20 10h20v-10zM25-381v10h11c-9 4-3 17 0 25-9 0-14 3-21 5-2 9 11 3 16 5 12-23 34-35 66-35v-10c-19 1-46 19-56 0H25zm285 0c-16-3-23 3-20 20 10 0 15 7 15 20h15c-13-15-20-27-20-35 5 0 12 2 10-5zM51-295v20l25-30c-7-11-17 7-25 10zm229 10c0 17-9 26-26 26v5l41 5v-31zm167 41c-5-28 18-27 41-26l21 16c-2-28 34-11 55-16 2 9-12 13 0 21 14-1 17-15 26-21h173l15 11 20-11c12 4 27 17 16 26l40 20v-10c-13 0-21-12-25-36 78 2 99-10 158 31 14-8 4-12 5-31h66c14 6 9 31 10 51l-31 46c15-1 16-15 31-15v66c-9 5 1 7 0 15l-10 15c16 14 8 53 10 82l-10 10H854c-1-13 21-1 21-15-5 1-13-3-11 5-2-6-11-5-20-5V0h-81l-26-20 16-31c-30-3-49-8-56-15l-36 15v15c10 0 15 5 15 16-11 0 3 3 0 10L666 0h-71c-1-11 3-15 15-15l-15-21h-25v-10h-31c5 23-32 35-41 15v-35h16c-10-8-5-36 0-46-11-10-22-15-31-15-1-9 9-10 0-15 0-10 7-14 10-21-2-9-10-17-25-25l-21 10c8 24 9 41-10 61-2 19 4 21 26 25v11h-16c0 10 7 15 21 15v51h20c-3 26-50 11-76 15 3-15-19-12-26-20-1-20 0-38 11-46v-20h-16v-41l31-26c0-10 7-15 20-15v-10h-20l10-51c7 0 10 5 10 15 20 3 18-16 26-25-3-3-4-6-11-5zm-386-5c6 9 14 11 25 5v-5H61zm575 0c-5 6-13 7-11 20h11v-20zm61 0c-5 1-13-3-11 5l16 5c1-6-3-7-5-10zM56-234c-18-5-7 16 5 15 1-8-1-13-5-15zm737 0v26c9-6 11-15 5-26h-5zm-81 15l10 11 10-11h-20zm-331 5c19-2 23 11 21 31h-21v-31zM61-203c-1 9 7 10 10 15l10-10zm727 5c-14-3-17 6-15 20h5c0-10 3-15 10-15v-5zm158 10c-1 14 3 23 5 35h5c0-13 14-39-10-35zm-137 25c-8-2-6 5-6 10l21-5v-20zm-117-5c1 12-4 31 5 36 2 9-11 3-16 5 0 5 10 12 31 20 1-8-11-13 0-20l-15-5c1-17 6-26 15-26-5-5-8-12-20-10zm330 0c-9-1-10 7-15 10 3 26 8 43 15 51l-20 31h10c0-7 5-10 15-10 1-16-3-28-5-41 9-1 21-9 26 0 9-5 1-17 0-26-11 1-26 11-31 0 4-2 6-7 5-15zm-473 10v5l31 26c5-9 15-12 30-10l46 40c2-3 6-4 5-10-25 2-21-33-15-51-9 7-8 24-26 21-18-7-35-22-56-10zm249 0c-11 0 0 15 0 21 11 0 0-15 0-21zM36-137c0 10-5 15-16 15 5 5 16 10 5 15v10h26c-3-13-11-21-10-40h-5zm727 0v76c11 16 25 26 40 30-3-17-14-26-20-40l10-21-20-20v-25h-10zm101 20c1-12-20-23-15-5 2 4 7 6 15 5zm31-10c7 12 21 6 20 30 10 4 25 9 21-10-14-6-21-20-41-20zm-71 10c1 16-3 28-5 41 18 0 15-22 15-41h-10zm-697 5c1 16 1 31-10 36-1-12-15-28-5-36h15zm188 36c-21-3-31 6-35 20 23-3 38-6 35-20zm361 35c15-21 42-3 51 21 7-2 5 5 5 10-12 3-19 11-35 10 0-14-7-28-21-41zM524-10c11-6 15-18 35-15 6 9 19 12 21 25-20-2-50 6-56-10zM5 0C-9-5 15-32 15-10" id="d"/><path d="M10-1436h306l10 10v117c-6 5-7 13-20 11 0-9-9-19-26-31 2-15-6-8-15-5l31 46-26 20c21-5 33-17 51-25l5 5v637c-26 4-37-8-51-16 0 14-7 21-20 21 1 36-9 30-36 30l-15-10c-3 7-15 16-5 21h30v10c16 0 30 8 41 25l10-15c-24 2-12-23-15-41 17 0 36-2 41 10v26c-11 0-16 3-16 10 14 0 26 9 36 26v61l-36 40h26v-20h10v224c-7 14-15 21-25 21 6 9 14 11 25 5v142h-10c2-37-24-25-41-40-2 13 8 13 31 20 2 10 5 19 5 31-8 5-10 18-26 15l-30-26c2 22 35 27 20 51 22 1 37-5 36-20h15c-1 19 5 45-10 51-20 1-38 0-46-10-5 14-28 10-46 10-7 0-10-5-10-15h-31c2 22-18 13-35 15-13-8-20-21-36-25V1H51v-15H20C17-3 36-16 31 1 2 8-7-16 10-30v-25H0v-46l20-30c2-16-14-13-20-21-1-26-5-54 31-46 8 5 14 12 30 10-7-8-20-10-30-15l-11-30H10v25H0v-194c8-18 31-4 46 0v6c18-6 41-7 66-6 0-7-7-10-20-10v-10c-29 3-57-1-41-31-13 0-20-19-20-56-6 12-28 5-31-5v-40h15c-9-5-3-18 0-26L0-605v-821zm92 15l-10 16c9 0 13-4 20-6zm71 61c1-12-20-23-15-5 2 4 7 6 15 5zm-15 67v5c22 10 48 16 66 30h5c-5-17-8-40 5-51-34-4-56 5-76 16zm76 35c6 5 8 13 21 11v-11h-21zm-203 11c-19-1 10 36 10 10zm254 402v46c27 1 10-31 5-46h-5zm21 122c-3 11-9 18-10 31l20-5-5-26h-5zM41-692v25h10v-25H41zm153 25l10 11c30-10 47-20 51-31l-5-5c-17 17-35 25-56 25zm-92 0c-2 13 5 16 10 21v-21h-10zm-92 21c13 7 18 23 41 20 0-9-14-15-41-20zm122 10v20c5-2 19 4 16-5-2-8-2-19-16-15zm194-5v51h-10c3-19-11-40 0-51h10zm-163 76c-5 0-12-2-10 5l51 36v-20c-17-12-26-27-26-46-5 0-10 8-15 25zm-138 5v6c11 0 21 7 31 20 11 0 13-10 20-15l-15-26c-16 5-25 17-36 15zm87-15l-5 31c5 8 17 9 15 25-13 2-24 6-40 5-6 13-18 34 0 41 12 0 20-3 30-5l5 25h5v-30c13 4 4-31 21-26l20 6c2-16-8-16-31-26-2-10-5-19-5-31 5-1 13 3 11-5-11 0-16-3-16-10h-10zm173 31v10h31v-15zm-20 41c-22 3-27 34-51 20v20h15c0-13 12-23 36-30v-10zM5-488c17 2 26 12 26 30-14 7-21 16-21 26H0c2-16-5-42 5-51v-5zm265 41c-8 4-24 0-20 15 13-5 20-10 20-15zm-132 25c12 2 16-3 25-5l-5-15zm66 0c-5 1-17-4-15 5 0 5 12 14 35 26v-11c-15 2-12-14-20-20zm-26 31c-40 6-58 4-56 20 14 0 21 7 21 20h10c0-15 8-29 25-40zm56 10c-5 4-16 1-15 10h21c-3-3-7-3-6-10zm-183 5c1 25-12 21-26 15-6 2-5 12-5 21 11 0 16 5 16 15h5c-1-24 17-28 41-26-7-12-17-20-31-25zm224 36c-33 12-48 20-46 40h5c1-13 15-20 41-20v-20zM92-320c12 2 15-5 20-10-12-2-15 5-20 10zm204 10l-6 21h16l5-21h-15zm-169 56c-1-12-8 0-5 5-10 0-15 3-15 10h15zm-56 26c15 3 21-4 26-11-15-3-20 4-26 11zm56 97c-2 8 6 4 11 5 0-7 5-11 15-11v-10zm56-16c6 13 26 46-10 46v5h26c11-19-3-51-16-51zm-96 21c-4 16 10 8 15 0H87zm30 51c5 7 12 12 26 10v-10h-26zM71-45l11 15 15-5-5-20zm158 0v10h16v-10h-16zm741-225c26-2 46 0 41 26-9-1-12 6-5 10 0 13 7 20 20 20 0-10 3-15 10-15l10 51h-20v10c13 0 20 5 20 15l31 26v41h-15c-2 17 3 27 10 35-1 12 4 31-5 36-14 0-21 5-21 15-26-5-72 12-76-15h20v-51c14 0 21-5 21-15h-15v-11c22-4 27-7 25-25-17-20-17-36-10-61l-21-10c-23 12-31 24-15 41 1 9-9 10 0 15v5c-9 0-19 5-30 15 4 8 10 37 0 46h15s3 40-10 46c-21 0-31-9-31-26h-30v10h-26l-15 21c12 0 16 4 15 15h-71c-5-4-16-14-5-20h-5c0-11 5-16 15-16v-15l-35-15c-8 7-27 12-56 15l15 31-26 20h-81v-15c-9 0-18-1-20 5 2-7-5-5-10-5-1 13 21 1 20 15H401l-11-10c2-29-7-69 11-82-4-6-17-18-6-25l-5-5v-66c15 1 16 15 31 15l-31-46c1-20-4-45 11-51h66c0 9 1 19-5 21l10 10c58-42 79-29 157-31-4 24-12 36-25 36v10l41-20c-11-9 3-22 15-26l20 11 15-11h173c9 6 19 29 31 16 2-9-7-6-5-16 21 5 58-12 56 16zm-147 21v20h10c2-12-5-15-10-20zm-51 0c-9-1-16 0-15 10 5-4 16-1 15-10zm-107 15c-13 3-11 20 0 26v-26zm61 15l10 11 10-11h-20zm351 36h-20c-1-18 0-33 20-31v31zm-397-15c-5 0-12-2-10 5 7 0 10 5 10 15 9 2 6-17 0-20zm-168 10c-24-4-10 21-10 35h5c2-12 6-21 5-35zm143 25c-11-1-13-11-21-15v20l21 5v-10zm112-5c-13-2-15 6-21 10 9 0 14 9 16 26-6 3-22 4-11 10 2 8-7 6-5 15 21-8 31-15 31-20-9 2-22-1-10-10v-31zm-316 10c-5-8-19-17-15 0 12 16-17 7-25 5-1 9-9 21 0 26 4-9 16-1 25 0-2 13-6 24-5 41 10 0 15 3 15 10h10l-20-31c7-8 12-25 15-51zm458 0c-9 11-21 12-36 5-15 5-25 16-45 16l-16-21c7 18 11 53-15 51-1 6 3 7 5 10l46-40c16-2 26 2 31 10l30-26v-5zm-244 0c-10 1-8 12-10 21 10-1 8-12 10-21zm20 21v25l-20 20 10 21c-6 14-17 23-20 40 16-4 29-14 40-30v-76h-10zm-76 5c-9 1-14 6-15 15 11 2 17-2 15-15zm-46 5c-20 0-26 14-40 20-3 18 10 15 20 10-1-24 12-18 20-30zm61 10c0 19-4 42 16 41-3-13-7-24-6-41h-10zm158 76c-13 13-20 27-20 41-17 1-24-7-36-10 0-5-2-12 5-10 9-24 36-42 51-21zm152 31c-6 16-35 9-55 10 6-14 13-27 35-25" id="e"/><path d="M788-1434L1295 0H925c-56-203-88-305-96-305H432l77-265h244c-65-217-118-394-148-533h-5c0 40-69 285-203 737-40 134-64 213-77 234h-10c-2 14 6 17 10 25L290 0c-26-11-60 9-87-5-33 8-87 7-122 0L66 0c1-8-3-2-5 0H0c0-34-2-70 5-97l-5-15c3 8 17 6 15-5H0c2-32-13-94 36-71 2-13-10-29-21-15l-15-5 5-41h5l41-132c7 3 15 15 20 5 0-10-10-10-15-16l30-91h6c0 7 5 10 15 10v31c27-13-15-80 40-72-2-10 0-20-15-20-11 0-21 17-30 51-5 0-12 2-10-5l30-97h20v10h16c3-16-5-22-11-30 1-12 17-28 6-36h-6c-2 27-1 38-15 36l112-336c10-2-1 15 15 10-19-11-1-62 11-56-3-3-7-3-6-10l153-437h371zM325-992c-8-2-4 6-5 11l21 5c0-11-11-10-16-16zM224-829v10l25-5v-5h-25zm-5 92c0 20-7 30-21 30 2 3 6 4 5 10-10 0-15 7-15 21h20c0-27 7-41 21-41v-20h-10zm-41 71c-5 1-17-4-15 5 5 4 10 15 15 5v-10zm142 71c-5-4-10-15-15-5-2 9 10 4 15 5zm-66 61c9 13 18 20 26 20v31c16 3 14-13 20-20-10-16-18-34-46-31zm-56 31c-3 5-11 6-10 15 3-5 11-6 10-15zM86-432v5l26 10-5-15H86zm173 0v20c3-3 4-6 11-5-4-5-1-16-11-15zm-112 30v10h21v-10h-21zm82 21c-3-10-14-26-21-16 2 10 11 14 21 16zm-36 30v10h36c1-9-10-6-15-10 1 9-3 1-6 0h-15zm-76 20v21h15c0-7 5-10 15-10v-11c-10 1-25 11-30 0zm-66 82c0 7-5 10-15 10 7 15 24 7 35 0v-10H51zm30 25c-13 0-20 5-20 16h20c-4-14 8-13 16-16-3-7-4-21-11-10-7-2-5 5-5 10zm219 26c0 7-5 10-15 10 13 12 20 24 20 35 25-2 15-45-5-45zm-76 10c-5 2-18-4-16 5 4 6 2 18 16 15v-20zm-41 41l-10 40 10 31-36 15c4 6 2 18 16 15-2-12 23-24 45-20v10c9 0 16 10 21 31h15l-10-36c29-3 5-40 5-51h10v-15c-32-2-15 39-15 61l-46-36c-4-21 7-26 10-40zm-25 61c2-22-44-22-41 0l25 10c0-7 5-10 16-10zM15-66v15c14-5 21-10 21-15H15" id="f"/><path d="M567-1434l5 5v237c0 7-39 14-117 20 2-16 32-31 54-20h9v-9h-53v9h-34l5 24c-70 56-78 57-77 136 0 66 82 113 247 141 8 4-4 10 0 19l19-15c167 36 296 60 358 112l88 73c1 8-10 2-15 4v-9c-13 0-19-7-19-20h-20l34 29 5 29h-10c-5 15 11 8 20 5l-15 34h44c0 10 5 15 14 15 0 9 7 22 20 38 16 6 24 21 24 44-10 14-39 9-63 10 2 12-35 24-58 19v10c15 0 27 3 34 10 0-7 6-10 19-10l15-15c5 20 10 32 19 20l5 5c-1-24 17-41 34-30-2 29 9 50-34 49 4 39-32 12-29 48h-39c0 11 3 19 5 29 9 2 5-12 0-14 20-6 34-18 63-15v10c15 2 20-6 29-10v-29h10c-3 58-10 105-20 141-2-4-7-6-14-5-2 7 5 5 9 5-6 46-15 67-43 53-4 15 11 11 19 15-7 19-20 39-38 58-3-2-4-6-10-5 0 21-10 37-29 48-3-2-4-5-10-4l10-34-54-44c16 4 8-10 0-15l-24 5c3-26-11-57 20-58 2-15-10-15-39-19 11 8 11 28 10 48-9 0-13-3-20-5 4 8 12 11 10 25-8 4-17 25-24 14-5 10-18 2-25 0 0-23 10-34 29-34v-5c-15-10-28-24-58-19 10 5 2 15-5 19-26 0-46-8-33-19-20-13-5-31 29-29 2-3 5-4 4-10-14 0-24-8-29-24 13-23 20-52 20-87l24 5c7-17 13-25 19-25 0-20-30-16-38-4h-5c-11-17-27-28-34-49 14 0 26 3 39 5 0-10 6-15 19-15-1-7 3-1 5 0 17 1 31 0 29-19-17 0-30-6-39-19-15-2-21 4-29 9-29-3-71 7-87-9-19 10-60-7-53-20 7 0 17-6 29-19-16-15-37-23-63-24v5c-11-1-27-15-34-5l-49-58c-7 19-19 29-38 29 0 11-11 19-34 24v10h-20C186-664 44-795 44-1032c0-247 197-391 523-402zm271 460c-32-157-62-176-218-208 6-75-4-160 0-242 2-3 6-4 5-10 139 0 269 34 373 121 57 47 78 89 78 107 17 0 37 63 62 189v14l-164 20v-5zm-77-421c-5 1-17-4-15 5l15 4v-9zm87 34l19-15c-11 0-12 10-19 15zm-582 34c6 14 29 8 25-10zm-140 77c5 3 6 10 14 10v-10h-14zm848 0v10h-29v9c18 1 34-1 48-4l10 14 14-5c6-27-18-25-43-24zm-722 10v9c25-2 17 12 34 10-8-9-12-24-34-19zm659 39v9h19v-9h-19zm179 67v25l15 9c-1-14-7-22-10-34h-5zM271-945v5l58 10-33-20zm97 34v10h15v-10h-15zm233 49c-18-5-6 18-5 29-7 0-13 10-19 29h-25c4 12 6 23 0 34 38-32 52-47 49-92zm-456 14l15 15c2-7 8-16 0-20zm68 5c-2 15 2 24 10 29v-29h-10zm73 53c-9-1-25-12-24 5h24v-5zm131 0c-7-2-16-8-20 0v5h20v-5zm266 29h19v-9c-11-2-14 5-19 9zm-504-4c5 4 8 11 20 9v-9h-20zm771 9l9 24c-13 14-66-5-39 34 2 18-3 29-9 39-18 2-31-2-39-10v20h-34v5l24 9c8-12 24-18 34-4 3-13 13-20 29-20v24h-14c-3 21 12 24 19 34 22-5-6-71 39-48v-34h-34c0-11 3-19 5-29 11 0 19 3 29 5 0-13 3-20 10-20-3-11-12-20-29-29zm-412 10v24h5v-24h-5zm203 19c-10 1-15 7-14 20h14v-20zm-227 39l-39-10 19 29h20c0-8 6-13 19-14-3-14 8-14 14-19l-4-15zm474-5c-13-3-11 9-14 15h14v-15zm88 34c-13-5-12-28 4-29 13 7 20 16 20 29h-24zm-369-10c-5-4-9-13-14-4-1 7 9 3 14 4zm301 10v10l29-5v-5h-29zm-431 10c20 0 30 7 29 29-12-1-19-7-29-10v-19zm406 10c-3 15 13 10 20 14v-10zm30 19c5 3 5 11 14 10-5-3-6-10-14-10zm-461 0h34l15 14v25c-61-11-92-21-92-29h43v-10zm281 24c-9-13-19 0-19 10 12 2 14-5 19-10zm112 0c0 16-8 24-25 24 1 5-4 17 5 15l44-34zm92 15c-1 17 16 12 34 14v-5c-15 0-27-3-34-9zm-54 29v9h25c-5-6-12-11-25-9zm10 58v10c-37-2-31 10-82 14l-5-5v10h44c2 25 1 31 19 29-9-9-14-22 0-29 20-1 40-2 48 10 3-19-10-31 5-39h-29zm-722 14c13 0 31-8 39 0 1 12-11 13-10 25 13 0 20 16 20 48 14 33 30 59 48 78 2 9-12-9-9 9 6 1 6-3 9-5 61 35 107 55 136 59v14h10v-10c21-1 60 0 58 15-2 20 8 60-20 44-4 1-11-2-9 4 13 2 19 10 19 25l-15 24c26-1 12 28 10 43-12-13-17 7-14 20 24-2 33 20 29 48 0 7-7 10-20 10l15 19c-5 10-18 11-34 10 0-7-11-20-34-39v-9h-29c-1 7 9 3 14 4v25h-38c-20-27-28-47-39-34v5c9 0 14 10 14 29-9 0-16 3-24 4-65-7-128-30-189-67 5-23 14-34 25-34v-15c-17 3-32 11-44 24h-19C86-171 25-256 10-388c3-5 10-5 9-14-2 2-3 6-9 5-7-15-10-36-10-63 4-5 14-16 19-5 10-11 35-1 49 0 22-13 62-10 97-10 1 5-4 17 5 15 1-13 6-20 14-20h87zm-58 15c-15-3-24 13-10 19 5-5 12-7 10-19zm858 0c-4 16 10 8 14 0h-14zm-44 19l10 20 14-20h-24zM19-441v34h5c0-7 5-10 15-10-4-11-4-26-20-24zm112 20c0-9-10-19-15-10v10h15zm150-15c-17-2-25 4-24 19 13 0 19 7 19 20h15c1-13-4-18-15-20 6-2 5-11 5-19zM78-407h24v-10c-14-2-20 3-24 10zm886 10v9h24v-29c-6 0-9 7-9 20h-15zm-775 0c5 6 11 11 24 9l-5-19zm698-10c5 3 5 11 14 10-5-3-6-10-14-10zm-742 10v19h10v-19h-10zm712 19c-4 0-11-2-9 5 0 9 11 14 34 14-4 28 22 23 29 10zm131 0v19h10v-19h-10zM68-359h14c3-15-9-7-14 0zm964-9c-1 12 5 16 14 19v-19h-14zm-78 9c-4-1-4 2-4 5 0 6 10 14 29 25v-20c-17 0-25-3-25-10zm92 15v19c9 1 10-6 15-9zm-126 15c-1 16 13 15 25 19 3-18-17-13-25-19zm-678 9c-2 15 6 20 10 29h10c1-14-7-19-10-29h-10zm775 10c-5 1-16-4-14 5l14 5v-10zM97-300c-3 5-11 5-10 14h10v-14zm891 58c-4 10 11 0 10 9l24-19c16 0 24-8 24-24h5c0-10-6-15-19-15 0-4 2-11-5-9-7 0-10 16-10 48zm-818-39l4 29c18 5 6-18 5-29h-9zm135 0c0 10-5 15-14 15v9l24-24h-10zm427 10c19-25 52-13 77 9 32 0 48 11 48 34 7 2 16 8 20 0 3 7 15 15 5 20v5c19 15 29 28 29 38h9c0-13 13-21 39-24 11 5-9 17 5 24-1 17-6 25-14 25 2 24 0 44-25 43 0 7 8 12 25 15 0-6 2-11 9-10v-34c10 3 14-5 5-10 2-16 13-24 34-24 5 23 12 34 19 34v5c-67 51-118 77-155 77v-9l-53 9c0-8 3-13 5-19-21-2-21 14-10 24 5 34-54 28-179 39-11-12-2-43-5-63 2-3 6-4 5-10 18 2 48 18 44-19 5-8 16-10 14-24-8-2-6 6-14 5 0-16-7-36-20-59l5-14-34-29c1-26-7-41 24-44l25 5c0-13 16-19 48-19v29h-48l14 29c7 2 5-5 5-10h39c-2-3-6-4-5-10 16-5 20 17 29 5l5 29h9c3-17-9-33 0-43-9 0-16-8-19-24-5-1-16 4-14-5zm72 14c-14 1-16 14-9 24 6-5 11-11 9-24zm-460 15c0 6 6 9 19 9-12 10 8 16 15 20-1-13-10-19-15-29h-19zm184 24c-9-2-4 10-5 15 5-1 17 4 15-5zm281 15v9h24c-5-6-11-11-24-9zm223 0v9h14v-9h-14zm-58 4h19v20c-7 2-15 8-19 0v-20zm-664 25c8 2 6-7 15-5 7 4 8 14 19 14 0-8-3-13-5-19-15-2-24 2-29 10zm310-15c18-2 16 18 10 29h-10v-29zm-402 15c-5 3-16 0-15 9h20c-2-3-6-3-5-9zm247 4c-15 6 14 23 24 10v-5zm-53 5c-9-2-4 10-5 15 10 5 13 16 29 14v-19c-9 5-24 8-24-10zm208 25c3-16 28-7 39-5v38c-27 3-44-1-39-33zm267-5c0 9-5 14-15 14v5h19l5-19h-9zm-54 5v24l34-5v-5c-16 0-24-5-24-14h-10zm-518 4c5 3 6 10 14 10-5-3-5-11-14-10zm417 10c8 17 7 20 24 19-4-10-10-19-24-19zM378-87c-10-4-20-26-29-15v15c5-10 20-2 29 0zm136 0c-3 15 5 36 14 24h10c0 5-2 12 5 10v-10zm353 19h29c1-12-4-18-14-19zM281-82c-3 0-6 0-5 4 23 0 34 10 34 30h10c-3-12 11-16 0-20zm165 4v20h9c2-12-5-15-9-20zm232 25v24l24-10c0-7-8-12-24-14zm-29 34v4l34 5-5-14zm-208 0c1 8-7 5-5 14-5-4-16-1-15-10zm19 9h20c5 15-11 8-20 5v-5" id="g"/><path d="M1068-1386c-32 12-36 4-61-30h-5v-18c26-1 48 1 66 8v40zm-185 163c-19 12-33-10-35-27h-14c4-2 6-7 5-14l-29-8 9-18h-9v-45c17-1 30 2 43 4-2-18 16-12 30-13l4 13c-23 5-34 18-34 37h5c11-19 30-31 43-15-8 3-4 18-5 28 16 2 41-7 39 13h10c0-17 9-26 27-26-10-12 4-34 5-50l-5-4h10c-1 16 12 13 25 13v-9h-10c2-10 6-18 5-31-9-2 0 13-14 8l-6-17h25v13c12 1 20-1 28-4 5 11 15 17 29 17 3 20-14 33-25 19l-27 8v9h19c-1 12-10 14-19 9-1 16 6 24 9 36h10c0-17 11-36 33-58h4c-3 48 7 109-9 143h9v44h-13c1-12 4-22 4-35h-4l-16 35h-57v-13h-10c0 9-3 13-9 13H733c4-12-25-23-39-13-10-10-21-40 15-35v-5c-28 1-24-12-24-35 4-8 15-10 29-9-1 21 21 10 34 9-2-3-6-3-5-9-11 10-36 2-29-19 6-16 23-23 48-22l5 14 28-9c0 11 8 17 24 17v36h20c0 14-1 27 4 36 10 0 15-6 15-18l29-4c-2-3-5-4-4-9zm138-27c-5-13-31 8-19 14 1 18-4 31-20 30 1 6-4 17 6 14 14-12 25-31 33-58zm-39 63v17l10-8zm6-247v9c-19 6-38 4-58 0 8-15 37-7 58-9zm-11 202c12-1 0-6-5-4 0 5-6 8-18 8v9zm-5-157c0 7-16 16-47 27v4l24 5c0-9 3-14 10-14 10 23-5 32-10 50-21 3-27-9-24-31-15 0-26-5-34-14 0 9-3-3-8 0l-30 9-10-14c10-6 22-19 5-26-24 0-38 10-43 31-11 0 3 2 0 9-5 12-26 9-43 9 3-43-38-16-33 9 18 0 27 3 27 9h-4c-3 13 20 21 20 0 7-11 27-2 33 4 0 24-11 36-33 36 0-5-8-8-24-8v-10h-15c-30 39-48 59-53 59-10-4-5 22-14 26-18 1-34-1-48-4-1 12 15 24 4 31 15 1 20-1 20-18 7 0 10 8 10 23h5l-11 26c10 0 17 3 25 5v8c-164-2-329 1-504 0-11 0-24-6-39-17h-9c5 2 4 10 4 17-24-5-62 3-94 0l-30-26c-2-17 2-29 10-36 2 6 12 4 20 4-7-8-3-28-20-26v-27h20c2 8 8 13 8 23 9-1 14-5 15-14-9 0-18-9-29-27l6-27c34 6 34 7 32 36 9 0 14 8 14 23 12 5 20 14 34 17v-17h29c5 31-24 27-24 53h5c-1-16 13-23 34-22 0 12 8 21 24 27 2 9-15-2-10 13 22 1 35-6 53-9v-9c-14-4-31-23-39-4l-38-49 5-14c-20 1-28-10-34-35 15-7 23-16 24-28 27-5 27 18 20 36 9-9 25 3 37 5v-23c-2 4-7 6-14 5v-14c9-3 14-9 25-9v-4c-38 2-39-9-29-32-14-1-22-6-34-9 10-4 1-13-5-17 2 35-19 30-42 36l-5-36c-7 8-26 2-39 4 3 35-13 26-39 27 0-29-6-35 29-40-3-42 14-30 44-32 0 4-2 11 5 9 0-12 3-18 9-18h85l30 32v-32c13 6 34 16 48 0h283c6 0 9 5 9 14h5c0-9 3-14 10-14h106c5 4 15 13 4 18-1 4 2 4 5 4l24-22h187c2 11-5 13-9 18v-4c-7 3-19 1-15 14 24 0 35-6 33 26h5l10-32c13-4 17 14 25 0 5 11 14 19 27 23zm-23 175c2-9-9-4-14-5v9zm-24 4c-27 1-33-12-24-31l-5-31h-13c8 23 5 57 22 71 12 2 15-5 20-9zm-101-187c15-10-6-26-14-15-1 11 10 10 14 15zm-5 227c-1-18-23-12-19 5 8 0 13-3 19-5zm-19-49c0-9-13 0-19 0v18c15 3 13-11 19-18zm-44-170c8-2 6-11 0-13h-13zm-110 18c-1 4 3 15-4 13l-5-22h-10v9c-17-1-30 2-43 4l-9-26h4l-4-23c-8-2-7 5-15 4l10 45h-10v9h35v23c11-3 22-5 32 0v31c-6 4-12 19-19 10-11-2-14 4-19 8h15c1 17-14 18-20 27-12-6-27 3-43-5v9l38 5c-3 3-5 7-4 14h4c0-6 8-9 25-9 3-43 34-10 53-5v-14h-11c-3-12 5-14 6-22 9 2 17 5 28 5v-9l-28-4c2-3 6-4 5-10l-15-5v-30h-20v-19h10c-5 15 11 8 20 5-2 14 9 15 33 22v-17zm-62 40c-28 1-26-7-19-22-7 6-18 9-33 9-2 17 3 16 23 22 7-10 10 8 15 13-5 0-12-2-10 5h19zm-5 139h-19c0 5 6 9 19 14v-14zm-28-14c3-15-11-5-15 0h15zm-5-183c-4-10-9-18-24-17-2 6-8 14 0 17h24zm-43 144c-5 1-15-3-14 4 2 7 2 16 14 13v-17zm0 58c-7-4-8-16-19-14l-34 5v13c15 0 23 7 23 22 13-1 23-10 30-26zm-30-202c-14-2-15 9-23 14 4 12 13 31 23 13-1-9-9-22 0-27zm-9 112h-9c-2 19 4 29 18 32-1-13-6-21-9-32zm-23 76c0-10-14-5-20-9v9h20zm-35-183c10 0 14-21 0-18-1 4 1 6 5 5-4 2-6 6-5 13zm0 4c-10 1-12 9-18 13 10-1 12-9 18-13zm0 130h-9l-5 27c-16 2-25-8-43-13-2 14 2 16 20 17l5 27h23zm-18-72c-2-8-1-16-9-17v17h9zm-29-90h-10v10c-4-7-16-2-24 0-2-7-1-17-9-18v14c22 11 33 30 33 58h10c-1-17-19-42 0-49v-15zm0 251c3-15-5-19-20-17 0 9-6 13-19 13v13c15-12 26-18 34-18 0 4-2 11 5 9zm-67-210c-8-9-12-22-34-18l29 22zm-24 184c-16 0-24-8-24-23h-5l-5 36h29zm-34-193c-8 5-10 12-5 22h5v-22zm-14-4c4-16-15-6-14 4 7 1 11-1 14-4zm-30 4c-13 1-15 12-5 18zm-62-22c-9 0-14-5-14-14-5 5-10 14-14 4h-9v23c12-2 19-9 37-8v-5zm-23 80c-15 1-30 1-34-9 11-1 26-12 34-4v13zm-34 166c3-20-6-27-19-31 3 21 5 34 19 31zm-72-273c5-14 31 8 10 9zM376-3v-502c9-14 19-24 10-44l5-6h-15c1-24-8-56 25-50l6 6c0-37 7-55 20-55-4-13-8-25 5-30h36v-10c13 0 20-3 20-10-25 1-49 1-66-6v6c-15 4-37 18-46 0v-190h10v24h10l11-29c10-5 23-7 30-15-22-3-42 25-61 0 2-13-4-34 5-40 30-5 2-34-5-45v-45h10c8-27-22-41 0-55h21v10c-5 1-13-3-11 5h31v-15h61v25c23-5 25-25 61-25 7 0 10 5 10 15h31c-2-25 28-12 46-15l10 10c8-12 48-17 56 0v40h-15c1-15-14-21-36-20 14 23-17 29-20 50 14-8 19-25 41-25 15 8 17 26 10 45-23 7-33 7-31 20 17-15 43-4 41-40h10v140c-10-6-19-5-25 4 10 0 18 7 25 21v220h-10v-20h-26l36 39v60c-10 17-22 26-36 26 0 6 5 9 16 9 1 16 1 31-10 36h-31c3-18-8-43 15-41l-10-14c-11 16-25 24-41 24v10c-12 1-31-4-35 5l10 16c12-11 59-26 51 19 13 0 20 7 20 21 14-8 25-20 51-16V-3H376zm290-267c4-15 16-30 6-45h-11v45h5zm21-119l5-26-20-5c1 13 7 20 10 31h5zm-260-31v-24h-10v24h10zm199 0l5-5c-4-10-21-20-51-30l-10 11c21 0 39 8 56 24zm-138-24v-21c-5 5-12 8-10 21h10zm-61-40c-23-3-28 12-41 19 27-5 41-11 41-19zm81 9c15 3 15-8 16-19h-16v19zm194 5c-28 2-6-29-10-50h10v50zm-163-74c5 16 10 24 15 24 0-18 9-33 26-45v-19l-51 35c-2 7 5 5 10 5zm-138-5c11-2 20 10 36 15l15-26c-7-5-9-14-20-15-10 13-20 20-31 20v6zm97 15c0-7 5-10 16-10 4-11-14 2-11-11l5-24c23-9 33-11 31-26-10 2-25 11-31 0 0-13-3-20-10-20v-29h-5l-5 25c-15-3-39-11-41 9l11 26c16-1 27 3 40 5 2 15-10 16-15 24l5 31h10zm194-26v-15h-31v10zm-102-65c24-12 30 17 51 20v-10c-24-7-36-16-36-29h-15v19zm-209 5c-8-11-4-35-5-55h10c0 10 7 19 21 26 0 17-9 27-26 29zm265-40c0-5-7-10-20-15-4 15 12 11 20 15zm-112-5l5-14c-9-1-12-8-25-5zm31-19c26 8 15-21 35-20v-11c-25 15-37 17-35 31zm-11-31c-17-11-25-24-25-39h-10c0 13-7 20-21 20-2 15 16 13 56 19zm56-10c-1-6 4-6 6-9h-21c-1 9 10 6 15 9zm-152-29c-24 2-42-2-41-25h-5c0 9-5 14-16 14-9 41 35-5 31 36 14-5 24-13 31-25zm193-11v-19c-26 0-40-7-41-20-4-1-6 1-5 5 0 13 15 25 46 34zm-183-19c5 4 8 11 20 9-5-4-8-11-20-9zm219-10l-5-21h-16l6 21h15zm-189-50c11 1 1-14 0-20h-15c0 7 5 10 15 10v10zm-51-31c6 7 11 14 26 11-5-7-11-14-26-11zm82-79v-10c-10 0-15-3-15-10-4 1-13-3-11 4zm30 0c13 0 27-31 16-50h-26v5c29-3 23 30 10 40v5zm-81-20c-5-3-6-11-15-10v10h15zm41-50v-10c-14-2-21 3-26 10h26zm-51-20l5-20-15-5-11 15zm153-10v-10h-16v10h16" id="h"/><path d="M10-1437h306l10 10v117c-6 5-7 13-20 11 0-9-9-19-26-31 2-15-6-8-15-5l31 46-26 20c21-5 33-17 51-25l5 5v637c-26 4-37-8-51-16 0 14-7 21-20 21 1 36-9 30-36 30l-15-10c-3 7-15 16-5 21h30v10c16 0 30 8 41 25l10-15c-24 2-12-23-15-41 17 0 36-2 41 10v26c-11 0-16 3-16 10 14 0 26 9 36 26v61l-36 40h26v-20h10v224c-7 14-15 21-25 21 6 9 14 11 25 5v142h-10c2-37-24-25-41-40-2 13 8 13 31 20 2 10 5 19 5 31-8 5-10 18-26 15l-30-26c2 22 35 27 20 51 22 1 37-5 36-20h15c-1 19 5 45-10 51-20 1-38 0-46-10-5 14-28 10-46 10-7 0-10-5-10-15h-31c2 22-18 13-35 15-13-8-20-21-36-25V0H51v-15H20C17-4 36-17 31 0 2 7-7-17 10-31v-25H0v-46l20-30c2-16-14-13-20-21-1-26-5-54 31-46 8 5 14 12 30 10-7-8-20-10-30-15l-11-30H10v25H0v-194c8-18 31-4 46 0v6c18-6 41-7 66-6 0-7-7-10-20-10v-10c-29 3-57-1-41-31-13 0-20-19-20-56-6 12-28 5-31-5v-40h15c-9-5-3-18 0-26L0-606v-821zm92 15l-10 16c9 0 13-4 20-6zm71 61c1-12-20-23-15-5 2 4 7 6 15 5zm-15 67v5c22 10 48 16 66 30h5c-5-17-8-40 5-51-34-4-56 5-76 16zm76 35c6 5 8 13 21 11v-11h-21zm-203 11c-19-1 10 36 10 10zm254 402v46c27 1 10-31 5-46h-5zm21 122c-3 11-9 18-10 31l20-5-5-26h-5zM41-693v25h10v-25H41zm153 25l10 11c30-10 47-20 51-31l-5-5c-17 17-35 25-56 25zm-92 0c-2 13 5 16 10 21v-21h-10zm-92 21c13 7 18 23 41 20 0-9-14-15-41-20zm122 10v20c5-2 19 4 16-5-2-8-2-19-16-15zm194-5v51h-10c3-19-11-40 0-51h10zm-163 76c-5 0-12-2-10 5l51 36v-20c-17-12-26-27-26-46-5 0-10 8-15 25zm-138 5v6c11 0 21 7 31 20 11 0 13-10 20-15l-15-26c-16 5-25 17-36 15zm87-15l-5 31c5 8 17 9 15 25-13 2-24 6-40 5-6 13-18 34 0 41 12 0 20-3 30-5l5 25h5v-30c13 4 4-31 21-26l20 6c2-16-8-16-31-26-2-10-5-19-5-31 5-1 13 3 11-5-11 0-16-3-16-10h-10zm173 31v10h31v-15zm-20 41c-22 3-27 34-51 20v20h15c0-13 12-23 36-30v-10zM5-489c17 2 26 12 26 30-14 7-21 16-21 26H0c2-16-5-42 5-51v-5zm265 41c-8 4-24 0-20 15 13-5 20-10 20-15zm-132 25c12 2 16-3 25-5l-5-15zm66 0c-5 1-17-4-15 5 0 5 12 14 35 26v-11c-15 2-12-14-20-20zm-26 31c-40 6-58 4-56 20 14 0 21 7 21 20h10c0-15 8-29 25-40zm56 10c-5 4-16 1-15 10h21c-3-3-7-3-6-10zm-183 5c1 25-12 21-26 15-6 2-5 12-5 21 11 0 16 5 16 15h5c-1-24 17-28 41-26-7-12-17-20-31-25zm224 36c-33 12-48 20-46 40h5c1-13 15-20 41-20v-20zM92-321c12 2 15-5 20-10-12-2-15 5-20 10zm204 10l-6 21h16l5-21h-15zm-169 56c-1-12-8 0-5 5-10 0-15 3-15 10h15zm-56 26c15 3 21-4 26-11-15-3-20 4-26 11zm56 97c-2 8 6 4 11 5 0-7 5-11 15-11v-10zm56-16c6 13 26 46-10 46v5h26c11-19-3-51-16-51zm-96 21c-4 16 10 8 15 0H87zm30 51c5 7 12 12 26 10v-10h-26zM71-46l11 15 15-5-5-20zm158 0v10h16v-10h-16zm97-596v51h-10c3-19-11-40 0-51h10zM5-489c17 2 26 12 26 30-14 7-21 16-21 26H0c2-16-5-42 5-51v-5" id="i"/><path d="M651-1434l5 5v223l-30 20c-1 9 10 6 15 10 0-12 4-16 15-15v10l-127 44-82 63-39-10c6 15 12 23 19 24 0-9 3-14 10-14v9c-55 67-91 151-107 253-2-6-11-5-20-5-2 14 26 3 20 25-2 41-2 60-20 58 14 12-5 33-19 19-15 12 9 20 19 10 12 12 23 62 34 151-7 4-8 14-19 14-2 7 5 5 10 5v-5c16 0 24 15 24 44l-5 5c8 2 34 43 78 122 0 7 34 33 102 77l83 20c2 12-4 16-5 24-2-4-7-6-15-5v15c-15 2-8-6-5-15l-29-5c-9 29-27 44-53 44v10c11-1 15 10 14 24 7-3 27-3 15-10v-4c31 3 26-17 19-34 23-7 47-4 68 4v-4c16 6 26 11 15 19-1 4 1 6 5 5-15 8 7 29-5 34-9 1-10-7-15-10 0 7-5 10-14 10l-5 24c10 0 16-3 24-5 0 7 7 10 20 10 1 16-7 23-10 34-11 0-16-7-24-10-7 8-22 8-20 25h10c4 25-10 31-29 34v-15h9c3-13-7-12-14-14 19-24 29-42 29-54-7 0-19 13-34 39 2 2 8 6 0 5-9-9-22-14-29 0 0 9 6 14 19 14-7 12-3 25 0 39-3-2-3-6-9-5v5c9 0 16 11 19 34-5 0-12-2-10 5l-87-19 5-25c-14-3-31-15-39 0 0-15-6-20-20-19 0 13-6 19-19 19-59-18-128-68-209-150 1-9 9-21 0-25-9-1-10 7-15 10l-73-102 5-15c-22 2-34-41-68-131 0-29 11-44 34-44l-5-24c7 0 10 5 10 15 2-6 12-7 15 0v-15c14-2 19 4 24 10-4 6-21 12-10 19v10c-3-2-3-6-9-5l-5 34 24 5v-5c20 0 36 10 49 29-10 5 1 12 9 10l-9-29c8 0 13 3 19 5v-5c6 2 15 15 19 5h10v10c5-4 16-14 5-20-1-9 9-10 0-15h-5c0 16-5 21-19 20-22-20-30-33-44-15-43 11-50-49-15-63 2 2 6 8 5 0 8 2 19 15 25 5 1-6-3-7-5-10 2-8 13-18 5-24l4-5c-13 1-20 9-34 0 1 9-6 10-9 15v-5c-18 10-44 12-73 10v9c-45 6-39-8-44-73 12 6 18 18 39 15 1-14-3-23-5-34l15-15c-12 1-16 10-25 15-2-8-13-18-5-24L9-661c3 33 15 24 5 44-10 0-15-36-15-107 0-78 5-117 15-117-2-3-6-4-5-10 9-99 41-217 126-330 131-176 313-253 516-253zm544 1215C1057-68 891 0 714 0v-10c9 0 14-3 14-9h-19v-68h10v-30c23 0 34 18 53 0-10-19-29-26-29-58 0-35 13-54 39-58-5-3-5-7 0-10v-19l-24 4v-14l43-10c2 8-5 7-4 15h9c0-13 26-33 78-59 39-32 58-53 58-63h34c2-8-5-7-4-14-3 4-8 5-15 4-1-13 13-18 44-38 4-18-11-35 0-44 12-3 13 10 19 0 12-1 20 3 20 14h4v-19c-16-1-37 6-34-15l5-31 280 150c-26 53-54 112-100 163zm-136-666l-53-48c2-3 5-4 4-10l-58-97c-48-59-109-104-185-122-38-9-58-11-58-19v-243l10-10c149 0 299 50 432 170 94 85 138 168 151 229-10 7-15 27 0 34v-30c5 0 10 8 15 24zm0-389v5c7 0 10 5 10 15h9v-20h-19zm-797 78c-14 4-28 4-25 24 15-7 23-15 25-24zm991 195c0 9-8 14-24 14v5c22 2 34-5 49-10v-9c-11-3-17 9-25 0zM101-972v10h15v-10h-15zm224 97c0 7-5 10-15 10 0 4-2 11 5 9l20-19h-10zm-97 10v9h14v-9h-14zm-127 48c-2 12 9 25 15 15v-15h-15zm44 20v10c5-1 17 4 15-5zm-78 19c-3 13 8 12 15 15 0-10-10-10-15-15zm112 10c-11-1-1 14 0 19-10 8-25 13-44 15 3-8-18-21-24-10v5c26 0 39 16 39 49-10-1-15 2-15 14-25 11-38 20-38 25 31-4 49-17 48-30l29-4c-1 8 7-4 15 0-6 2-6 11 0 14 5-13 27 5 14 10h25c0-9-3-13-5-20h10v10h14c-4-2-6-7-5-14 16 2 22 21 39 9-10-6-1-23 0-34h-29c0-4 2-11-5-9v9c-25-6-36-12-34-29-15 14-29-14-34-29zm-97 53v15c7-3 18-2 15-15-2 6-12 7-15 0zm-5 64v9h20c-5-4-8-11-20-9zm68 0c-10 0-6 13-10 19 8 1 11-8 10-19zm-10 24c-8 2-13 6-14 15zm151 39c2 3 6 4 5 10l24-5c5-18-18-6-29-5zm-29 10l5 14 19-19c-11-1-16 3-24 5zm-39 4c-16 3-21 23-39 10-4-1-6 1-5 5 13 6 23 16 39 19-4-14-8-28 5-34zm44 39c1 22-17 13-29 10 0 11-3-3-10 0-9 15-27 27-15 49h5c0-15 14-33 39-30 2 7-5 5-10 5l15 25c10-1 26 3 29-5 15 1 14 18 29 19-20-32-34-48-43-48v-25h-10zM24-515c9 0 16 4 24 5-3 10-9 17-20 19zm150 9c-5 10-5 20 0 30 9 1 6-10 10-15l15 5v-15zm-82 49c-7 14-29-8-34 5v5l48 29c1-19-2-28-14-39zm962 0c5 3 6 11 15 10-5-3-6-11-15-10zm-690 20c-5 3-16 0-15 9h15v-9zm666 29c-14 0-10 21-5 29 17 1 19-24 5-29zm92 0c-4 5-14 9-5 14l-5 5h15zm-724 9c-12 1-1 17 5 20l9-10zm-199 30l19 4 10-14c-15-2-25 1-29 10zm850-5c-2 11 10 9 20 9-1-9-14-5-20-9zm-48 5c-14 0-10 21-5 29 16 1 18-24 5-29zm-632 24c16 6-15 32 14 29 0-17-5-26-14-29zm39 24l-25 24 44-14c0-10-13-6-19-10zm-190 10c-1 15 13 28 24 10v-10c-3 5-6 6-9 0h-15zm-78 29c1 5-4 17 5 15l15-5c-5-5-8-12-20-10zm180 0v20c10 0 6-14 10-20h-10zm224 0c-11-3 11 13-10 10v10c6-2 15-15 19-5 1-9-6-10-9-15zm-370 10c-10-2-7 23 5 19 0-8-3-13-5-19zm219 5c-2 30 2 51 34 53v-19zm-190 34c5 3 10 13 15 5v4l15-4-5-15c-14-2-20 3-25 10zm69 9c5 5 7 12 19 10l5-19c-11 0-16 6-24 9zm452 20c-20 0-17-28 4-24zm-472 5c9-1 14-6 15-15zm49-15v15h9v-15h-9zm14 20c10 4-2 7 0 14 6 9 14 11 25 5 1 4-3 12 4 10-1-14 37-4 30-29-16 18-35-3-59 0zm482 9c-5 1-17-4-15 5l15 5v-10zm-88 15h10c-1 18 5 43-10 48v-48zm-428 24c5 30 28 30 59 29v-5c-14-2-27-6-39 0 5-2 6-7 5-14zm97 5c-9 1-9 11-14 15 13 3 11-8 14-15zm530 5c-9 1-12 6-14 14 12 3 11-8 14-14zm-457 24c-2 11 9 10 20 10 0-10-14-6-20-10zm54 0l10 25h19v-10c-7 0-10-5-10-15h-19zm-146 10c-8-12-13 7-15 15 11 0 16-7 25-10 2-7-5-5-10-5zm141 19c-8-1-19-7-24 0-2 7 5 5 9 5-2 3-5 4-4 10h19v-15zm136 34c6-31 6-45 20-43-2 14 5 37-5 43v5zm156-4c2-13-10-25-15-15-3 13 8 12 15 15zM587-29c18-12 64-28 64 10l5 14c-16 1-29 3-44 5-1-12-11-15-15-24-3 2-4 6-10 5v-10" id="j"/><path d="M76-1434c1 5-4 17 5 15 0-8 7-13 21-15 4 8 12 11 10 25-10 0-15 5-15 16-12 8-25 13-41 5-8 17-16 32-25 20-13 1-13 14-21 20l31 6v35c-14 0-21 5-21 15H0c-4-51 10-94 0-137l5-5h71zm66 0h173l10 10v137h-10c1-32-10-36-20-20-2 20 5 19 30 31v157c-13-2-26-4-40-5v5l40 16v61h-15v10c10 0 15 3 15 10v244c-13 0-20 12-20 36 10 7-9 15-25 15-7 0-10-9-10-26h-6c2 30-15 26-40 26-9-5-12-16-10-31 24 1 11-21 10-35-3 2-4 6-10 5 13 11 2 37-21 30-18-6-26-24-25-51l15-5-10-30c13 0 20-9 20-26h41v-20c12-1 31 4 36-5h5c0-10-7-15-21-15l-5-31c-3 2-4 6-10 5 15 17-10 35-31 36v15c-2-4-7-6-15-5l-10 31-20-11v11h-51c-1-18 2-32 5-46-20 2-14-15-15-31l15-5c6 24 20 36 41 36v-5c-21-12-36-33-16-46 4 8 20 4 31 5 2-18-8-43 15-41v-10c-20 0-30-10-30-30-13 16-48-14-61 0v-10c17 1 15-11 15-26h-10v10c-12-2-22-6-36-5-2 10 15-1 10 15l-20 6v-26h15c2-13-2-21-5-30 13-6 20-16 20-31 19-3 23 8 31 15-16 9-4 26 0 41h10v-20c9 0 19 10 10 15-2 7 5 5 10 5l31-10v-10c-19 0-41-12-66-36v-41h-10c0 8-7 18-21 31-3-8-19-4-30-5 15 40 15 49-31 76v5H0c-2-31 2-55 10-76H0v-20h10v15c28-1 42-6 41-26-8-2-4 6-5 11-27-3-41-15-41-36 11-11 26-18 51-15-2 12-6 21-5 35h5c1-13 4-20 10-20-1-19-19-46 0-56v-5c-10 0-15-3-15-10-8 12-24-4-26-15 19 2 33-16 21-26 6-9 14 5 25 0l26-5 5 31c16-5 25-18 35-16 4-15-12-11-20-15l15-46c-9 0-15-10-20-30l10-15c10 2 23 15 31 5-3-12-10-22-11-36zm250 0h122l10 10c-7 5-12 12-10 26 16 2 19-9 20-36h86c3 6 7 5 11 0h66c2 20 11 32 20 20 8 1 2-3 0-5v-15h127v15c5-10 10 4 20 0 2-8-7-6-5-15h183l11 10v244l-11 10H910v-15c-7 0-10 5-10 15H610l-15-10-15 10H392c-15-5-10-30-11-50 5-4 6-8 0-11v-157h11v-15h-11c-2-16 2-26 11-31zm-178 36l-11 20c13 2 16-5 21-10zm66 10c10 42 18 48 35 25-12 2-5-47-35-25zm147 20l15 10c2-7 8-16 0-20-9-1-10 7-15 10zm-249 20c11 0 13-10 20-15-11 0-13 10-20 15zm671-15c4 15-25 29-35 15l-5 21h30c5-12 13-21 15-36h-5zm-249 15l-5 21c12 2 15-5 20-10zm-381 11v25c-9-1-20-10-11-15h-15v30h-10v10h10c0-12 15-19 46-20 8-13 16-20 25-20v-10h-45zm269 10v20c5-5 12-8 10-20h-10zm300 25h15v-15zm-366 10c-13 6 3 25 10 11 11 11 18 25 15 50 9-1 20 0 21-10-9-22-25-39-46-51zm-239 16c-9 1-14 6-15 15 13 3 12-8 15-15zm-97 20c-5 19 20 5 31 5v-15zm158 0l5 25h-10c2 5-4 19 5 16 18-6 31-17 51-21v-5c-13-2-24-6-41-5v-10h-10zm-122 5v15h10v-15h-10zm71 15c-6-10-20-1-20 10 12 2 15-5 20-10zm397 0v10c12 2 15-5 20-10h-20zm-153 10v11c13 2 15-6 21-11h-21zm275 0l-10 31c13-4 22-12 20-31h-10zm-549 16v15h10v-15h-10zm310 5v20c10 0 14-22 0-20zm310 10c-2 12 5 15 10 20v-20h-10zm-473 10c-38 4-43 38-91 31-6-9-15-11-26-5v20c10 0 26 10 31 0l51 15c1-11-3-15-16-15 2-13 15-16 21-25h30c2-8 9-17 0-21zm-102 102c-13 9 5 19 11 25 11-11 45-4 40 16 6-1 19 4 16-6-14-15-36-26-67-35zm72 41h20l-10-11zm-280-6h10c6 20 4 40 0 61-16-7-8-39-10-61zm229 11c-1-12-8 0-5 5 7 0 10 7 10 20h10zm-178 5c7 0 17 17 30 51h5l6-26c-11 0-16-3-16-10l26-5c10 5 17 13 30 15 4 23-10 29-35 26 0 15-5 27-16 35 11 0-3 3 0 10l11 31-16 10c-7-10-22-22-30-5 0 26 12 41 35 46 0 11 4-4 11 0 13 5 10 27 10 45-48-3-19 42 10 36 0-20 3-30 10-30v5c14 2 25-21 0-21-11-8-2-29 5-35 27 0 41 12 41 35-7 0-10 9-10 26h-11v15c45 31 67 50 67 56-4 11 24 6 30 15 1 20-1 36-5 51 15 2 27-16 36-5 1-16-1-19-21-20 0-7 9-11 26-11v-5l30 11c0-11 3-17 5-26h10c-1 51 4 109-5 153 11 118 2 255 5 381 0 12-7 26-20 41v10c2-6 11-5 20-5-7 25 4 67 0 101L295 0c-19 2-32-2-41-10 6-2 5-12 5-21l-30 11v10h-31v-21c9-3 14-10 26-10-1-9-6-14-16-15 0 9-10 19-30 31l-31-6c7-38 9-36 41-35 0-10 9-15 26-15 6-13 17-20 20-36h-20v-30c35-6 31 25 61 25v-5c-19 0-27-13-26-36 14 0 24-8 31-25 10-2-1 15 15 10 1-23-7-37-10-56h-10l-16 31 11 10-56 40-16-5c2 21-11 29-40 36-7-15-18-24-31-25-6-30 21-28 41-21-12-9 3-28 5-40h-26c5 2 7 7 6 15h-16c-3-9-10-14-10-26h-5c2 41-10 40-36 31-1 14-7 23-10 35-6-11-16 0-20 6 40-2 35 19 41 45l-41 5c9 6 3 27 5 41 40-3 30 12 31 41-32 0-41 7-46-31-47 3-35-13-36-46 5 0 12 2 10-5-13 0-20-3-20-10v-91l36-31H0c8-14 17-36 0-51v-300c0-7 5-10 15-10v-5c-10 0-15-3-15-10v-112c4-5 14-16 20-5 4 1 6-1 5-5L0-753v-198c12-2 15 5 20 10h-5c3 8 2 20 16 16 0 0-6-38 30-36v-5l-36-10c-4-13 14-18 0-26 13-6 21-16 26-30zm198 25c-9-2-4 10-5 15h10zm5 26c1 29-14 34-35 25l-36 5v15l71-15c12-5 13-24 0-30zm132 91c21 0 37 15 46 46l-5 5c12 3 15-10 20 0 12 0 14-10 21-15-8-13-26-15-26-36 8-1 14 11 21 0 25 7 66 7 91 0-2 8 11-5 21 0 12 7 26 3 40 0 45 0 95-3 127 10 5-5 15-16 21-5l5-5h203c3 5 11 6 10 15-13 2-28-11-35 0v5l41 11c3-7 1-20 15-16v92c-25-3-43-12-56-26h-31v-10h-30c0-13-7-20-21-20 5 31 17 52 26 51 18-3 9 20 25 20-1-24 22-18 31-30 13 6 29 29 46 15h5c7 29 5 66 5 102-9 5 1 7 0 15l-5 35c-17-1-40-11-46 6 0 0-12 2-10-6-27 7-62 6-97 6-3-6-7-6-10 0-14-2-36 5-41-6-17 18-57-9-76 6-19 0-42 4-46-11-43 18-114 9-173 11-7 0-13-10-20-31-10 0-10 10-15 15l-16-5c6 26-31 21-55 21v-11h25c-4-10-6-14 0-25 8-1 13 11 20 0 3-19 0-47-20-31-9 0-13-3-20-5 8 6-5 20 5 31-7 9-2 28-21 25v-61c5-3 5-7 0-10v-107c15-2 15 11 21 41h5c-1-25 7-33 10-46-10-16-34-18-31-46 12-5-4-10 0-20zM41-875c-11-17-29 9-16 16 11 1 10-11 16-16zm523-5c-9 1-15 6-15 16 6-4 18-2 15-16zm26 0c-11 2-23 1-20 16 10-2 22-1 20-16zm-305 21c5 5 8 12 20 10 0-9-3-14-5-21-9-1-10 8-15 11zm488 0c10 0 22 7 36 20 0-10 5-15 15-15 0 5 12 14 35 25v-10c-16 0-31-10-45-31-18-1-37-2-41 11zm-529 10c-11-1-1 14 0 20h20c3-16-13-14-20-20zm320 10v15c17 4 9-10 0-15zm-96 10c0 19 8 32 25 41 8-14 21-23 26-41h-5c0 7-7 10-21 10 0 5 2 12-5 10 0-14-5-21-20-20zM51-803c-9-15-19 2-15 15zm661-6v11h25v-11c-4 11-17 3-25 0zm-163 11c-2 19 13 25 21 10zm265 10c-1 16 14 29 25 10-5-7-11-12-25-10zm-372 10v10h11c0 7 5 10 15 10v36h10l5-26c-19-20-33-30-41-30zm377 20v21h5v-21h-5zm96 10l5 26 16-15c-6-5-8-13-21-11zm-386 11l10 15-25 10c0 5 7 10 20 15-4-3 22-21 30-10-3-7-3-27-10-15h-10v-15h-15zm213 10v20l16 5 10-30zM71-686c5 1 17-4 15 5l-25 5v10h10c-1 18 2 32 5 46l-30 10v-5l-26 5c-2 8 7 6 5 15l51-10v10h10v-36h26c-4-12-6-24 0-35h35c4 7 22 13 11 20-2 13 6 15 10 21v-16c18-1 20 14 30 21 1 9-9 10 0 15 0 12-3 20-5 30h10l5-40c3 4 8 6 16 5v-5c-7 0-10-9-10-26-48-4-12-35-6-56h-15v11c-13 3-16-4-25-6 2-10 5-19 5-30h-10l-5 30c-3-3-4-6-11-5l-5 16h-35v20H86v-10c16 5 10-11 6-21 15 2 17-9 25-35H97zm366-21c-1 4 1 6 5 5l26-5c4-20-21-2-31 0zm366-5c0 21 11 30 16 46h5v-31c-7 0-10-5-10-15h-11zm-132 51c1 5-4 17 5 15 5-4 17 0 16-10zm143 0c0 10-4 15-11 15v10l21-10v-15h-10zm-697 41c1 28-9 27-25 20 7 8 10 20 10 36 19 2 18-4 25-26-12-7 9-10 15-15 0 5-2 12 5 10v-20zm158 5v20c5 0 10-7 15-20h-15zm-16 30c-16-4-8 10 0 15v-15zm-213 5c-5 8-17 10-15 26 7 2 16 8 20 0v-26h-5zm168 46c1 5-4 18 5 15 7-2 18-2 15-15h-20zm66 0c-5 7-15 9-16 20l6 36h15c0-17 8-25 25-25-2-13-12-24-30-31zM51-503c-2 16 10 17 15 25l26-10c-2-19-21-14-36-10zm127 10v10c21 2 32-5 36-20-15 1-24 7-36 10zm86 25c-10 0-6 15-10 21h10v-21zM56-437c-7-2-16-8-20 0-3 6 7 8 5 0 2 4 7 6 15 5v-5zm5 5c0 11 10 13 15 20 0-11-10-13-15-20zm147 0v10l31 5c3 18-9 27-15 46 16 1 19-1 20-21l31-5v-25zm-81 20c-9 2-20 0-20 10h20v-10zM25-381v10h11c-9 4-3 17 0 25-9 0-14 3-21 5-2 9 11 3 16 5 12-23 34-35 66-35v-10c-19 1-46 19-56 0H25zm285 0c-16-3-23 3-20 20 10 0 15 7 15 20h15c-13-15-20-27-20-35 5 0 12 2 10-5zM51-295v20l25-30c-7-11-17 7-25 10zm229 10c0 17-9 26-26 26v5l41 5v-31zm167 41c-5-28 18-27 41-26l21 16c-2-28 34-11 55-16 2 9-12 13 0 21 14-1 17-15 26-21h173l15 11 20-11c12 4 27 17 16 26l40 20v-10c-13 0-21-12-25-36 78 2 99-10 158 31 14-8 4-12 5-31h66c14 6 9 31 10 51l-31 46c15-1 16-15 31-15v66c-9 5 1 7 0 15l-10 15c16 14 8 53 10 82l-10 10H854c-1-13 21-1 21-15-5 1-13-3-11 5-2-6-11-5-20-5V0h-81l-26-20 16-31c-30-3-49-8-56-15l-36 15v15c10 0 15 5 15 16-11 0 3 3 0 10L666 0h-71c-1-11 3-15 15-15l-15-21h-25v-10h-31c5 23-32 35-41 15v-35h16c-10-8-5-36 0-46-11-10-22-15-31-15-1-9 9-10 0-15 0-10 7-14 10-21-2-9-10-17-25-25l-21 10c8 24 9 41-10 61-2 19 4 21 26 25v11h-16c0 10 7 15 21 15v51h20c-3 26-50 11-76 15 3-15-19-12-26-20-1-20 0-38 11-46v-20h-16v-41l31-26c0-10 7-15 20-15v-10h-20l10-51c7 0 10 5 10 15 20 3 18-16 26-25-3-3-4-6-11-5zm-386-5c6 9 14 11 25 5v-5H61zm575 0c-5 6-13 7-11 20h11v-20zm61 0c-5 1-13-3-11 5l16 5c1-6-3-7-5-10zM56-234c-18-5-7 16 5 15 1-8-1-13-5-15zm737 0v26c9-6 11-15 5-26h-5zm-81 15l10 11 10-11h-20zm-331 5c19-2 23 11 21 31h-21v-31zM61-203c-1 9 7 10 10 15l10-10zm727 5c-14-3-17 6-15 20h5c0-10 3-15 10-15v-5zm158 10c-1 14 3 23 5 35h5c0-13 14-39-10-35zm-137 25c-8-2-6 5-6 10l21-5v-20zm-117-5c1 12-4 31 5 36 2 9-11 3-16 5 0 5 10 12 31 20 1-8-11-13 0-20l-15-5c1-17 6-26 15-26-5-5-8-12-20-10zm330 0c-9-1-10 7-15 10 3 26 8 43 15 51l-20 31h10c0-7 5-10 15-10 1-16-3-28-5-41 9-1 21-9 26 0 9-5 1-17 0-26-11 1-26 11-31 0 4-2 6-7 5-15zm-473 10v5l31 26c5-9 15-12 30-10l46 40c2-3 6-4 5-10-25 2-21-33-15-51-9 7-8 24-26 21-18-7-35-22-56-10zm249 0c-11 0 0 15 0 21 11 0 0-15 0-21zM36-137c0 10-5 15-16 15 5 5 16 10 5 15v10h26c-3-13-11-21-10-40h-5zm727 0v76c11 16 25 26 40 30-3-17-14-26-20-40l10-21-20-20v-25h-10zm101 20c1-12-20-23-15-5 2 4 7 6 15 5zm31-10c7 12 21 6 20 30 10 4 25 9 21-10-14-6-21-20-41-20zm-71 10c1 16-3 28-5 41 18 0 15-22 15-41h-10zm-697 5c1 16 1 31-10 36-1-12-15-28-5-36h15zm188 36c-21-3-31 6-35 20 23-3 38-6 35-20zm361 35c15-21 42-3 51 21 7-2 5 5 5 10-12 3-19 11-35 10 0-14-7-28-21-41zM524-10c11-6 15-18 35-15 6 9 19 12 21 25-20-2-50 6-56-10zM5 0C-9-5 15-32 15-10" id="k"/><path d="M0-1424c6-15 32-9 51-10 3 5 7 5 10 0h56c-4 33 30 34 56 41 0-5-14-12-41-21v-20h138c3 5 7 5 10 0 19 1 45-6 45 15l-15 21c25-2 12 27 15 45-6 1-7-3-10-5-17 14-34 21-51 21v10h41c0-10 7-15 20-15v40c-10 0-15 3-15 10h15v1017l-10 11c-17-11-25-23-25-36-9-2-6 13 0 15l-26 10 6 36c-17 0-26 8-26 25h-15c2-18-12-23-26-15 8 18 3 38-15 41-13-23-25-35-35-36 0-23-19-38-56-46-2-9 10-4 15-5-1-12-10-17-26-15 11 4 3 18 0 26-16-5-48-14-45 15 11 5-7 28 10 15 9 0 13 3 20 5 0-17 15-25 46-25 10 7 3 31 5 46-21 2-37-1-46-11 3 34 16 51 41 51 4-8 13-2 20 0l-5 26c7 3 10 11 21 10 0-10 7-15 20-15v-11h-15c-2-16 10-17 15-25l30 15c-4 25-11 42-20 51 2 3 6 4 5 10l-51 36c-14 5-10-12-15-21h10v-10l-56-25c9 13 18 20 26 20v31c-12 0-17 10-16 25H76v-10c-10 0-15-3-15-10 8 1 2-3 0-5v-36h-5c-9 10-19 15-31 15v16c15 14 28 25 16 35C22-50 8-60 0-76v-92l10-10c0 27 14 44 41 51 2 4 7 6 15 5 7-24 11-59-25-56-9-8-12-22-10-41-21 0-31-3-31-10v-193l31-31c4-19-15-5-21 0-10-5-11-19-10-35l15-15 36 10c0-7 8-10 25-10v-16c16-5 8 12 5 21h5c14 18 21 33 21 45 9 1 10-7 15-10-10 0-15-12-15-35 17 0 25-7 25-21-11-6-22-14-35-5 1-12-12-11-21-15v15H66c5-25-15-9-25 0v-5L0-519v-167c-5-14 31-4 31-21-45-1-28-26-31-61 12-1 13 11 25 10-5-19 13-36 0-45h-5c0 21-15 15-20 5 3-31-8-76 10-92 2-16-5-22-10-30v-504zm229-5l-10 26c-12 3-12-6-21-6-3 7-3 28-10 16-5 0-12-2-10 5 3 13 16 20 41 20v-20c22 9 32 11 30 25h-25c1 12 10 17 25 15 0-7 5-10 15-10l6-25c-24-19-36-34-36-46h-5zm580 498c5-7 20-18 10-25v-66c17 2 37-7 35 15 8 2 17 9 21 0v-15c-3 3-4 6-11 5 0-17-17-25-50-25-7-31-29-63-66-97v-10l-16 5-142-20-15 5c2-10-11 8-16-5-21 8-56-4-86 0-14-6-27-6-41 0-21-2-51 6-56-11 2-3 6-4 5-10 10 13 25-6 36-10-4-2-6-7-5-15 35 9 4-47 35-46v-5c-25 0-49-9-71-26 3-31-8-75 10-91-12-8-17-48 0-56 17-3 44 3 31 15h10v-10l87-5c1 21-4 37-16 51v15c22-2 27 10 46 10 1-12-4-14-20-15-9-16-1-66 10-61h117c135 2 203 12 203 31-7 5-12 11-10 25l31 30v26l25 5c-1-13 3-20 15-20-3-3-6-4-5-11 10 0 26-10 31 0h5c0-19 4-21 20-20 23 11 51 35 82 71v10h-26c-23-27-42-40-56-40 5 3 5 7 0 10v20c31-2 45 6 61 31 1 24-6 41-20 56-6-10-24-1-36 0-5-7-11-12-25-10-1 11 10 20 0 25h51c4 7 21 13 10 20 7 3 10 11 20 11 1-11-7-14-10-21 8 1 2-3 0-5v-30c10 2 19 5 31 5 4-23-28-41 0-61h15c34 47 51 80 51 101h-16v-10h-10c-1 13-8 32-30 31 3 14 11 21 10 40 21-28 34-41 56-40l5 35c-23 24-43 36-61 36v25c9-5 25-8 25 10h10c-17-12-12-53 21-40 19 7 10 47 10 71 0 84-13 124-51 122-5-5-8-12-20-10v15c9-11 28 4 46 0-25 75-64 144-133 168l-86 30v6c40 0 81 27 122 81v10l-25 5v15h15c0-10 7-15 20-15 1 14-22 21-10 31 0 9-3 13-5 20 44-30 43-11 61 71-24 12-26 0-41-35h-10c0 20 9 33 0 50 34-1 61-7 61 36 0 10-7 15-20 15v10h10v-10h15l10 71c-7 3-14 16-20 6-5 9-24 4-36 5v-31c-6 5-27 8-15 15v5l-30 11v5l-31-5c-2-42 22-61 71-61 0-7-8-11-25-11 0-23-12-35-36-35-2-26 31-32 16-56-8-1-14 0-16 5-8-2-29-5-15-15-2-11-20-23-5-36v-5c-21-4-28 6-36 15l21 5c3 36 1 40-46 41l-26 46c-7 2-5-5-5-10h-20v20c27 1 8 18 0 25 1 13 15 32 5 41-30-1-54 9-51-30-10 0-15-4-15-11 10 1-5-6 0-15l25 5c0-7 7-10 21-10-7-3-5-15-5-25 16 2 7-6 5-16-7-30 45-46 66-25 0-10-7-13-10-20 8-7 27-25 0-26-8-3-4-19-5-30 14 1 21-5 20-21-17 3-12 4-31 0-27 15 29 55-20 66 3 20-16 18-25 26-13-18-28-38-46-36-19-17-62 17-56 26h-20c-36-18-60-37-72-56l-15 5c3 7 10 10 10 20l-101-5c-3-7-2-19-16-15 0 10-3 15-10 15H386l-10-10v-239l10-10c77 1 153 0 224-5 0 5-2 12 5 10 13-9 47-20 102-31 61-38 92-77 92-117zm-229-472c-3 5-11 6-10 15 3-5 11-6 10-15zm-478 45l10 10c5-5 12-8 10-20zm686-10c-2 10-5 19-5 31l15 5-5 35h5c-2 27-9 41-20 41 12 12 4 57-15 51 0 24 12 41 35 51 16-13-14-17-10-36 14 0 26-8 36-25-10-5 5-12-5-16 13-10 28-15 45-15v-20h-15c0 8-10 16-30 25 0 9-7 14-21 15-3-37 5-45 36-71 0-17 5-25 15-25 2-9-13-6-15 0 0-13-8-20-25-20-5-16-12-25-21-26zm-625 10v16h10v-16h-10zm391 10v11c5-10 13-1 21 0v-11h-21zm331 6h15c4 16-10 8-15 0zm-76 15c16-4 8 10 0 15v-15zm81 20l5 20c7-5 12-11 10-25-8-2-6 7-15 5zm-453 41c5-21-11-41-20-31l15 31h5zm51-31c-1 13 4 19 15 21-2-10 0-24-15-21zm427 21v5l26-5c0 7 8 12 25 15l-15-20c4-5 15-11 5-16-21 0-27 15-41 21zm-366-11c-2 9-15 20-5 26l-30 10c-2 7 5 5 10 5-2 26 28 20 46 15l-16-25 21-31h-26zm-264 31h-36v10c25 3 40-4 51-15l5 5v-25c-13 3-20 12-20 25zm-224-20c0 7-7 10-20 10 1 5-4 17 5 15l30-15v-10H61zm681 0v10c5-2 18 4 16-5zm173 15c-7 5-12 11-10 25h26v-5c-11 0-16-7-16-20zm-529 0h6l25 30c-3 12-16 30-41 31-2-26 5-42 10-61zm-305 15c-5 13-20 37 11 31 4-6 12-8 10-21zm127 36c-4-1-6 1-5 5h11l-6 25c16 1 28-3 41-5 2-24-19-31-15-51zm-61-16v11c6-9 13-2 21 0v-11h-21zm743 0c-5 4-16 1-15 11 7 4 13 21 20 10 0-9-3-14-5-21zm-351 31v20h10c-4-6 0-20-10-20zm234 5c5-3 6-11 15-10v10h-15zm-514 0v10c5-4 17 0 16-10h-16zm631 0l-10 15c12 3 17-12 25 0 3-13-8-12-15-15zm-46 5c0 7 9 10 26 10 1 5-3 13 5 11 1-18-12-21-31-21zm-707 31c-2 16 12 8 10 30 9 2 7-6 16-5 0-10-5-15-16-15 3-3 7-3 6-10h-16zm-122 10l41 35c2-13 4-26 5-40zm219 0c-30 7-33 15-31 46 11 0 16-9 16-26l15 10c-3-9-7-17 0-30zm620 10c-15-5-8 11-5 20h10zm97 0c-5 4-16 1-15 10h15v-10zm36 31h-31v10l46-16-5-20c-7 0-10 9-10 26zm-178-11c-5-7-20-17-16 0h16zm20 0c-4 5-15 11-5 16 9 2 3-11 5-16zm35 11l-5 20h16v-20h-11zm-40 10l15 15c-1-9-6-14-15-15zm183 10v20l10-10zm-860 20c-17-1-35-2-35 15l35-5v-10zm6 0c7 12-2 13 0 31 3-2 4-6 10-5 0 10 5 15 15 15l5 15c15-7 24-13 25-20h-30c-3-11 6-11 5-21-10 1 5-6 0-15-3 5-7 5-10 0h-20zm808 0c8 15 17 23 26 26v-16c-11 0-16-3-16-10h-10zm-36 31c0 19 9 33 21 30 0-17-7-27-21-30zm168 25c9 1 10-7 16-10-10-1-11 7-16 10zm-956 46c-3 22 7 21 36 30v-5zm844 0c4 27 9 41 16 41 31-3 38-18 20-31-9 11-24-8-36-10zm82 10c-2 16 10 17 15 26 3-16-9-18-15-26zm-885 46l20 15c10-2 29-16 26-41-31 11-46 20-46 26zm-81-15c-12 2-27 21-36 10 6 15 20 34-10 35 10 9 6 35-15 31-2 9 13 6 15 0 0 7 5 10 15 10-4 14-17 26 0 36h5c1-31 48-9 41 10 68-17 102-32 102-46-12 4-16-10-21 0 0 10-12 17-35 20v-35c-19 5-34 24-46 10v10c-5-9-24-4-36-5 2-17 4-12 0-30 16-7 27-17 46-21 2-12-3-16-5-25-5 9-22 7-20-10zm757 25c-5 1-17-4-15 5l15 5v-10zm168 10c-9 1-14 6-15 15 11 2 17-2 15-15zm-41 26c-16-4-8 10 0 15v-15zm-86 40c-2 21 21 16 36 10v-5zm112 5c4 6 0 21 10 21v-21h-10zm-265 31c-14-1-10 22-5 30h5v-30zm-132 5v15h10v-15h-10zm188 5v15c17 3 26 11 26 26h10c1-17-12-9-10-36zm138 5c3 22-19 21-41 20-1 13 4 13 20 21 10-38 31-13 46 0h5c0-7-5-10-15-10v-21c6-4 20 0 20-10h-35zm-255 5c-13-3-16 7-15 21 11-1 9-15 15-21zm-534 10c-3 3-6 4-5 11 17 15 36 28 51 45h10zM41-732c-6 2-5 11-5 20l20 5c-1-8 3-2 5 0 14 2 20-3 25-10-19 0-34-5-45-15zm66 0c-4 5-15 10-5 15 5-1 17 4 15-5zm579 15c-11 3-18 9-20 20 7-6 23-4 20-20zm21 15c5 18 32 5 35-10zm-153-5l16 15v-15h-16zm270 31c-5 0-13-2-10 5 5 12 16 20 30 25-2-14-14-19-20-30zm-712 10c-4 5-15 10-5 15 9 2 4-10 5-15zm51 0l5 25h25c-5-13-9-28-30-25zm396 0v20c5-2 19 4 16-5-2-8-2-19-16-15zm153 15c-13 8-20 22-36 26-3-3-3-7-10-6 2 15 8 24-5 31l5 5 66-41c4-15-12-11-20-15zm152 5v10h31v-10h-31zm-40 26h10v30c27-2-18-79-10-30zM41-631c-1 10 7 11 10 16 1-9-7-10-10-16zm132 0c-9 6-11 15-5 26h5v-26zm778 0c-17-5-18 8-5 16 5-5 14-10 5-16zm-209 26l-5 25c15 2 24 11 36 16 11-5 14-25 0-31-7 12-21 15-20-10h-11zm-183 5c-1 9 8 10 11 15 1-9-8-10-11-15zm97 5c0 7-5 10-15 10v15l20 6v-31h-5zm-554 10v15h10v-15h-10zm468 10c13 8-12 26 20 21-6-7-3-24-20-21zm111 21v10h21c-5-5-8-12-21-10zm-437 15c-11 2-22 1-20 15h20v-15zm-81 46c-14 2-18-6-26-10v15l21 5-11 41 31-11 20 16c0-7 7-10 21-10-5-18-24-33-36-21-13-20 4-50 31-51 4-2 6-7 5-15-43-2-36-2-56 41zm844-36c-4 5-15 10-5 15h10zm-743 26c-10-1-25-11-30 0 2 13 17 13 25 20 6-2 5-11 5-20zm458 30c11-6 16-18 36-15 2 23-6 35-10 51h-11zm214 5c0 7 7 10 20 10 2 7-5 5-10 5-1 8 0 14 5 16l-5 15c-19-1-45 5-51-10 0-24 14-36 41-36zm-697 26l5 30c10 4-1-12 10-10-4-8 0-24-15-20zM41-432v30c-20-1-17 21-10 31 13-7 20-16 20-26 8 9 22 13 41 11v-16c-3 4-8 6-16 5v-10c-3 2-4 6-10 5 0-14-8-24-25-30zm152 0c-18-2-23 12-15 25-11 8 7 6 10 26-3 17-13 29-30 35-2 7 5 5 10 5 23-17 35-34 35-51-21-1-14-25-10-40zm753 61c-11-12-5-42 15-36l5 31zm-188-15c5 1 17-4 15 5-5 4-10 15-15 5v-10zM86-341l41 10c2-21-34-25-41-10zm967 36h10v15h-10v-15zm35 41c-29 5-26-49 0-41 13 5 14 35 0 41zm-915-26c-15-1-20 6-20 20l25-5zm834 5c29-14 53-17 51 36 38-27 59 8 66 76l25 71c-3 8-19 4-30 5-7 0-10-17-10-50-3-4-7-7-16-6 3 82 15 126 36 133 2 7 8 16 0 20h-51c0-10-3-15-10-15s-10 5-10 15c-19 0-21-19-21-41h11c0-7-5-10-16-10v-10c13-15 17-32 16-56-17 7-13 9-11 31h-15c-17-14-25-24-25-31l-41 5c-12-5-18-16-36-15v15c34 0 51 14 51 41-17 8-32 16-20 25l-5 5c-52 1-76-21-61-56-3-5-7-5-10 0-37 5-30-8-41-56l51-50-5-16 25 11 10-16c-13 0-20-5-20-15h-31c0-10-5-15-15-15 5-16 17-25 15-36h46c0 25 17 40 51 46 0 6 15 14 46 25 0 7 5 11 15 11-2 10-5 19-5 30h41v-10c20-2 30 6 45 10-1-14-10-20-15-30l-5 5c-19-3-35-11-46-26h-40v-10c-15 0-26-15-31-46 5-8 34-8 41 0zm-224 51c-1-4 1-6 5-5 0 7 5 10 15 10 4 15 13 37-15 31zm-508 61c-22-17-1-50 25-30h5l-5 30h-25zm701-5c0 9-7 14-20 15 1 8 7 24 15 10 10 0 10 10 16 0v-25h-11zM20-153c-2-18 5-26 21-25 1 9 9 21 0 25H20zm773-20c7-11 19 1 26 5-7 12-3 27 0 41h-16zm-559 15c-2-20 14-14 30-15-1 14 30 4 21 31-10 0-17 8-21 25 8 1 14 0 16-5 9 0 17 8 25 25-10 5 1 11 5 16-5 7-14 9-15 20l-46-5 5-5-15-51c-2 4-7 6-15 5 11-8-4-25 0-41h10zm844 0c-10 2-20 0-20 11h20v-11zM198-81h5c37 21 56 40 56 56l-25 10c4 2 6 7 5 15-28 0-59 2-81-5 0-20-5-44 20-41v10h36v-10l-26-5c-2-16 12-8 10-30zm921 40c-3-22 4-33 25-30 8 11 22 15 26 30-18 2-37 8-51 0zM51-10c10 3 23-21 35-36-2-9 14-6 16 0l35-15c5 7 15 9 16 20-11 17-28 26-51 26V0C83-1 57 5 51-10zm798-10c-7-32 15-33 41-31l5 26c-10 7-12 22-31 20zM5-15c1-13 10-18 26-16 9 9 20 16 10 31C20 4 13-6 5-15zM305 0c-20 1-19-31 0-31 11 5 14 25 0 31zm-56-10h21V0h-21v-10zm682 0h30V0h-30v-10" id="l"/><path d="M76-1434c1 5-4 17 5 15 0-8 7-13 21-15 4 8 12 11 10 25-10 0-15 5-15 16-12 8-25 13-41 5-8 17-16 32-25 20-13 1-13 14-21 20l31 6v35c-14 0-21 5-21 15H0c-4-51 10-94 0-137l5-5h71zm66 0h173l10 10v137h-10c1-32-10-36-20-20-2 20 5 19 30 31v157c-13-2-26-4-40-5v5l40 16v61h-15v10c10 0 15 3 15 10v244c-13 0-20 12-20 36 10 7-9 15-25 15-7 0-10-9-10-26h-6c2 30-15 26-40 26-9-5-12-16-10-31 24 1 11-21 10-35-3 2-4 6-10 5 13 11 2 37-21 30-18-6-26-24-25-51l15-5-10-30c13 0 20-9 20-26h41v-20c12-1 31 4 36-5h5c0-10-7-15-21-15l-5-31c-3 2-4 6-10 5 15 17-10 35-31 36v15c-2-4-7-6-15-5l-10 31-20-11v11h-51c-1-18 2-32 5-46-20 2-14-15-15-31l15-5c6 24 20 36 41 36v-5c-21-12-36-33-16-46 4 8 20 4 31 5 2-18-8-43 15-41v-10c-20 0-30-10-30-30-13 16-48-14-61 0v-10c17 1 15-11 15-26h-10v10c-12-2-22-6-36-5-2 10 15-1 10 15l-20 6v-26h15c2-13-2-21-5-30 13-6 20-16 20-31 19-3 23 8 31 15-16 9-4 26 0 41h10v-20c9 0 19 10 10 15-2 7 5 5 10 5l31-10v-10c-19 0-41-12-66-36v-41h-10c0 8-7 18-21 31-3-8-19-4-30-5 15 40 15 49-31 76v5H0c-2-31 2-55 10-76H0v-20h10v15c28-1 42-6 41-26-8-2-4 6-5 11-27-3-41-15-41-36 11-11 26-18 51-15-2 12-6 21-5 35h5c1-13 4-20 10-20-1-19-19-46 0-56v-5c-10 0-15-3-15-10-8 12-24-4-26-15 19 2 33-16 21-26 6-9 14 5 25 0l26-5 5 31c16-5 25-18 35-16 4-15-12-11-20-15l15-46c-9 0-15-10-20-30l10-15c10 2 23 15 31 5-3-12-10-22-11-36zm72 36l-11 20c13 2 16-5 21-10zm66 10c10 42 18 48 35 25-12 2-5-47-35-25zm-102 40c11 0 13-10 20-15-11 0-13 10-20 15zm41 11v25c-9-1-20-10-11-15h-15v30h-10v10h10c0-12 15-19 46-20 8-13 16-20 25-20v-10h-45zm-36 61c-9 1-14 6-15 15 13 3 12-8 15-15zm-97 20c-5 19 20 5 31 5v-15zm158 0l5 25h-10c2 5-4 19 5 16 18-6 31-17 51-21v-5c-13-2-24-6-41-5v-10h-10zm-122 5v15h10v-15h-10zm71 15c-6-10-20-1-20 10 12 2 15-5 20-10zm-30 26v15h10v-15h-10zm147 25c-38 4-43 38-91 31-6-9-15-11-26-5v20c10 0 26 10 31 0l51 15c1-11-3-15-16-15 2-13 15-16 21-25h30c2-8 9-17 0-21zm-102 102c-13 9 5 19 11 25 11-11 45-4 40 16 6-1 19 4 16-6-14-15-36-26-67-35zm72 41h20l-10-11zm-280-6h10c6 20 4 40 0 61-16-7-8-39-10-61zm229 11c-1-12-8 0-5 5 7 0 10 7 10 20h10zm-178 5c7 0 17 17 30 51h5l6-26c-11 0-16-3-16-10l26-5c10 5 17 13 30 15 4 23-10 29-35 26 0 15-5 27-16 35 11 0-3 3 0 10l11 31-16 10c-7-10-22-22-30-5 0 26 12 41 35 46 0 11 4-4 11 0 13 5 10 27 10 45-48-3-19 42 10 36 0-20 3-30 10-30v5c14 2 25-21 0-21-11-8-2-29 5-35 27 0 41 12 41 35-7 0-10 9-10 26h-11v15c45 31 67 50 67 56-4 11 24 6 30 15 1 20-1 36-5 51 15 2 27-16 36-5 1-16-1-19-21-20 0-7 9-11 26-11v-5l30 11c0-11 3-17 5-26h10c-1 51 4 109-5 153 11 118 2 255 5 381 0 12-7 26-20 41v10c2-6 11-5 20-5-7 25 4 67 0 101L295 0c-19 2-32-2-41-10 6-2 5-12 5-21l-30 11v10h-31v-21c9-3 14-10 26-10-1-9-6-14-16-15 0 9-10 19-30 31l-31-6c7-38 9-36 41-35 0-10 9-15 26-15 6-13 17-20 20-36h-20v-30c35-6 31 25 61 25v-5c-19 0-27-13-26-36 14 0 24-8 31-25 10-2-1 15 15 10 1-23-7-37-10-56h-10l-16 31 11 10-56 40-16-5c2 21-11 29-40 36-7-15-18-24-31-25-6-30 21-28 41-21-12-9 3-28 5-40h-26c5 2 7 7 6 15h-16c-3-9-10-14-10-26h-5c2 41-10 40-36 31-1 14-7 23-10 35-6-11-16 0-20 6 40-2 35 19 41 45l-41 5c9 6 3 27 5 41 40-3 30 12 31 41-32 0-41 7-46-31-47 3-35-13-36-46 5 0 12 2 10-5-13 0-20-3-20-10v-91l36-31H0c8-14 17-36 0-51v-300c0-7 5-10 15-10v-5c-10 0-15-3-15-10v-112c4-5 14-16 20-5 4 1 6-1 5-5L0-753v-198c12-2 15 5 20 10h-5c3 8 2 20 16 16 0 0-6-38 30-36v-5l-36-10c-4-13 14-18 0-26 13-6 21-16 26-30zm198 25c-9-2-4 10-5 15h10zm5 26c1 29-14 34-35 25l-36 5v15l71-15c12-5 13-24 0-30zm131 91c18 0 31 15 39 46l-5 5c11 3 13-10 17 0 11 0 12-10 18-15-7-13-22-16-22-36 7 0 11 11 18 0 20 7 56 7 76 0-2 6 20-6 30 5 35-8 95-9 127 5 4-5 12-16 17-5l4-5h170c3 5 9 7 8 15-11 1-24-10-29 0v5l34 11c4-6 0-19 13-16v92c-21-3-36-12-47-26h-26v-10h-25c0-13-6-20-17-20 4 30 14 52 21 51 16-3 8 19 21 20-1-24 18-18 26-30 11 6 24 29 39 15h4c5 30 4 67 4 102-7 5 1 8 0 15l-4 35c-15-2-34-10-39 6-5 1-10 1-8-6-22 7-52 6-81 6-3-6-5-6-8 0-12-1-32 4-35-6-14 18-48-9-63 6-17 0-36 2-39-11-34 18-95 9-144 11-6 0-12-10-17-31-9 0-8 10-12 15l-14-5c5 24-23 21-46 21v-11h21c-3-9-5-14 0-25 7-1 10 11 17 0 2-17 1-47-17-31-8 0-11-3-17-5 8 6-5 20 5 31-6 8-2 27-18 25 2-21-5-51 4-66l-4-5v-107c13-2 13 12 18 41h4c-1-25 5-33 8-46-9-15-29-19-26-46 10-5-4-10 0-20zM41-875c-11-17-29 9-16 16 11 1 10-11 16-16zm493-5c-8 2-13 7-13 16 6-4 16-3 13-16zm22 0c-11 1-19 2-17 16 9-2 19-2 17-16zm-271 21c5 5 8 12 20 10 0-9-3-14-5-21-9-1-10 8-15 11zm424 0c8 0 18 7 30 20 0-10 4-15 12-15 0 5 10 14 29 25v-10c-13 0-26-10-37-31-16-1-31-1-34 11zm-465 10c-11-1-1 14 0 20h20c3-16-13-14-20-20zm290 10v15c15 3 6-10 0-15zm-80 10c0 19 7 32 21 41 6-14 18-24 21-41h-4c0 7-6 10-17 10 0 5 2 12-5 10 0-12-3-20-16-20zM51-803c-9-15-19 2-15 15zm607-6v11h21v-11c-3 10-14 4-21 0zm-137 11c-1 18 11 25 18 10zm222 10c4 7-2 23 12 20 9-7 9-13 0-20h-12zm-311 10v10h9c0 7 4 10 13 10v36h8l4-26c-16-20-27-30-34-30zm315 20v21h4v-21h-4zm80 10l4 26 14-15c-5-5-6-13-18-11zm-322 11l8 15-21 10c0 5 6 10 17 15-3-3 19-21 25-10-2-6-2-27-8-15h-9v-15h-12zm178 10v20l13 5 8-30zM71-686c5 1 17-4 15 5l-25 5v10h10c-1 18 2 32 5 46l-30 10v-5l-26 5c-2 8 7 6 5 15l51-10v10h10v-36h26c-4-12-6-24 0-35h35c4 7 22 13 11 20-2 13 6 15 10 21v-16c18-1 20 14 30 21 1 9-9 10 0 15 0 12-3 20-5 30h10l5-40c3 4 8 6 16 5v-5c-7 0-10-9-10-26-48-4-12-35-6-56h-15v11c-13 3-16-4-25-6 2-10 5-19 5-30h-10l-5 30c-3-3-4-6-11-5l-5 16h-35v20H86v-10c16 5 10-11 6-21 15 2 17-9 25-35H97zm383-31c-10 4-23 4-26 15 10 0 17-4 26-5v-10zm280 5c0 20 9 30 13 46h4v-31c-5 0-8-5-8-15h-9zm-111 51c1 5-4 17 5 15 4-3 14-1 13-10zm120 0c2 17-12 10-9 25 8-6 21-7 17-25h-8zm-626 41c1 28-9 27-25 20 7 8 10 20 10 36 19 2 18-4 25-26-12-7 9-10 15-15 0 5-2 12 5 10v-20zm158 5v20c5 0 10-7 15-20h-15zm-16 30c-16-4-8 10 0 15v-15zm-213 5c-5 8-17 10-15 26 7 2 16 8 20 0v-26h-5zm168 46c1 5-4 18 5 15 7-2 18-2 15-15h-20zm66 0c-5 7-15 9-16 20l6 36h15c0-17 8-25 25-25-2-13-12-24-30-31zM51-503c-2 16 10 17 15 25l26-10c-2-19-21-14-36-10zm127 10v10c21 2 32-5 36-20-15 1-24 7-36 10zm86 25c-10 0-6 15-10 21h10v-21zM56-437c-7-2-16-8-20 0-3 6 7 8 5 0 2 4 7 6 15 5v-5zm5 5c0 11 10 13 15 20 0-11-10-13-15-20zm147 0v10l31 5c3 18-9 27-15 46 16 1 19-1 20-21l31-5v-25zm-81 20c-9 2-20 0-20 10h20v-10zM25-381v10h11c-9 4-3 17 0 25-9 0-14 3-21 5-2 9 11 3 16 5 12-23 34-35 66-35v-10c-19 1-46 19-56 0H25zm285 0c-16-3-23 3-20 20 10 0 15 7 15 20h15c-13-15-20-27-20-35 5 0 12 2 10-5zM51-295v20l25-30c-7-11-17 7-25 10zm229 10c0 17-9 26-26 26v5l41 5v-31zM61-249c6 9 14 11 25 5v-5H61zm-5 15c-18-5-7 16 5 15 1-8-1-13-5-15zm5 31c-1 9 7 10 10 15l10-10zm-25 66c0 10-5 15-16 15 5 5 16 10 5 15v10h26c-3-13-11-21-10-40h-5zm91 25c1 16 1 31-10 36-1-12-15-28-5-36h15zm188 36c-21-3-31 6-35 20 23-3 38-6 35-20zM5 0C-9-5 15-32 15-10zm966-1438h306l10 10v117c-6 5-7 13-20 11 0-9-9-19-26-31 2-15-6-8-15-5l31 46-26 20c21-5 33-17 51-25l5 5v637c-26 4-37-8-51-16 0 14-7 21-20 21 1 36-9 30-36 30l-15-10c-3 7-15 16-5 21h30v10c16 0 30 8 41 25l10-15c-24 2-12-23-15-41 17 0 36-2 41 10v26c-11 0-16 3-16 10 14 0 26 9 36 26v61l-36 40h26v-20h10v224c-7 14-15 21-25 21 6 9 14 11 25 5v142h-10c2-37-24-25-41-40-2 13 8 13 31 20 2 10 5 19 5 31-8 5-10 18-26 15l-30-26c2 22 35 27 20 51 22 1 37-5 36-20h15c-1 19 5 45-10 51-20 1-38 0-46-10-5 14-28 10-46 10-7 0-10-5-10-15h-31c2 22-18 13-35 15-13-8-20-21-36-25v25h-61v-15h-31c-3 11 16-2 11 15-29 7-38-17-21-31v-25h-10v-46l20-30c2-16-14-13-20-21-1-26-5-54 31-46 8 5 14 12 30 10-7-8-20-10-30-15l-11-30h-10v25h-10v-194c8-18 31-4 46 0v6c18-6 41-7 66-6 0-7-7-10-20-10v-10c-29 3-57-1-41-31-13 0-20-19-20-56-6 12-28 5-31-5v-40h15c-9-5-3-18 0-26l-15-25v-821zm92 12l-10 16c9 0 13-4 20-6zm71 61c1-12-20-23-15-5 2 4 7 6 15 5zm-15 67v5c22 10 48 16 66 30h5c-5-17-8-40 5-51-34-4-56 5-76 16zm76 35c6 5 8 13 21 11v-11h-21zm-203 11c-19-1 10 36 10 10zm254 402v46c27 1 10-31 5-46h-5zm21 122c-3 11-9 18-10 31l20-5-5-26h-5zm-265-56v25h10v-25h-10zm153 112l10 11c30-10 47-20 51-31l-5-5c-17 17-35 25-56 25zm-95-77c-2 13 5 16 10 21v-21h-10zm-74 30c13 7 18 23 41 20 0-9-14-15-41-20zm104 10v20c5-2 19 4 16-5-2-8-2-19-16-15zm197 63v51h-10c3-19-11-40 0-51h10zm-151-97c-5 0-12-2-10 5l51 36v-20c-17-12-26-27-26-46-5 0-10 8-15 25zM983-633v6c11 0 21 7 31 20 11 0 13-10 20-15l-15-26c-16 5-25 17-36 15zm103 41l-5 31c5 8 17 9 15 25-13 2-24 6-40 5-6 13-18 34 0 41 12 0 20-3 30-5l5 25h5v-30c13 4 4-31 21-26l20 6c2-16-8-16-31-26-2-10-5-19-5-31 5-1 13 3 11-5-11 0-16-3-16-10h-10zm160 43v10h31v-15zm-20 41c-22 3-27 34-51 20v20h15c0-13 12-23 36-30v-10zm-260 15c17 2 26 12 26 30-14 7-21 16-21 26h-10c2-16-5-42 5-51v-5zm265 41c-8 4-24 0-20 15 13-5 20-10 20-15zm-132 25c12 2 16-3 25-5l-5-15zm66 0c-5 1-17-4-15 5 0 5 12 14 35 26v-11c-15 2-12-14-20-20zm-26 31c-40 6-58 4-56 20 14 0 21 7 21 20h10c0-15 8-29 25-40zm56 10c-5 4-16 1-15 10h21c-3-3-7-3-6-10zm-183 5c1 25-12 21-26 15-6 2-5 12-5 21 11 0 16 5 16 15h5c-1-24 17-28 41-26-7-12-17-20-31-25zm224 36c-33 12-48 20-46 40h5c1-13 15-20 41-20v-20zm-183 20c12 2 15-5 20-10-12-2-15 5-20 10zm204 10l-6 21h16l5-21h-15zm-169 56c-1-12-8 0-5 5-10 0-15 3-15 10h15zm-56 26c15 3 21-4 26-11-15-3-20 4-26 11zm56 97c-2 8 6 4 11 5 0-7 5-11 15-11v-10zm56-16c6 13 26 46-10 46v5h26c11-19-3-51-16-51zm-96 21c-4 16 10 8 15 0h-15zm30 51c5 7 12 12 26 10v-10h-26zm-46 30l11 15 15-5-5-20zm158 0v10h16v-10h-16" id="m"/><g id="a"><use transform="matrix(0.01953125,0,0,0.01953125,0,0)" xlink:href="#d"/><use transform="matrix(0.01953125,0,0,0.01953125,22.0703125,0)" xlink:href="#e"/><use transform="matrix(0.01953125,0,0,0.01953125,44.609375,0)" xlink:href="#f"/><use transform="matrix(0.01953125,0,0,0.01953125,70.64453125,0)" xlink:href="#g"/><use transform="matrix(0.01953125,0,0,0.01953125,94.27734375,0)" xlink:href="#h"/><use transform="matrix(0.01953125,0,0,0.01953125,116.640625,0)" xlink:href="#i"/><use transform="matrix(0.01953125,0,0,0.01953125,124.375,0)" xlink:href="#j"/><use transform="matrix(0.01953125,0,0,0.01953125,151.171875,0)" xlink:href="#g"/><use transform="matrix(0.01953125,0,0,0.01953125,174.8046875,0)" xlink:href="#k"/><use transform="matrix(0.01953125,0,0,0.01953125,196.875,0)" xlink:href="#f"/><use transform="matrix(0.01953125,0,0,0.01953125,222.91015625,0)" xlink:href="#l"/><use transform="matrix(0.01953125,0,0,0.01953125,246.34765625,0)" xlink:href="#j"/><use transform="matrix(0.01953125,0,0,0.01953125,273.14453125,0)" xlink:href="#m"/></g><path d="M788-1434L1295 0H925c-56-203-88-305-96-305H432l77-265h244c-65-217-118-394-148-533h-5c0 40-69 285-203 737-40 134-64 213-77 234h-10c-2 14 6 17 10 25L290 0c-26-11-60 9-87-5-33 8-87 7-122 0L66 0c1-8-3-2-5 0H0c0-34-2-70 5-97l-5-15c3 8 17 6 15-5H0c2-32-13-94 36-71 2-13-10-29-21-15l-15-5 5-41h5l41-132c7 3 15 15 20 5 0-10-10-10-15-16l30-91h6c0 7 5 10 15 10v31c27-13-15-80 40-72-2-10 0-20-15-20-11 0-21 17-30 51-5 0-12 2-10-5l30-97h20v10h16c3-16-5-22-11-30 1-12 17-28 6-36h-6c-2 27-1 38-15 36l112-336c10-2-1 15 15 10-19-11-1-62 11-56-3-3-7-3-6-10l153-437h371zM325-992c-8-2-4 6-5 11l21 5c0-11-11-10-16-16zM224-829v10l25-5v-5h-25zm-5 92c0 20-7 30-21 30 2 3 6 4 5 10-10 0-15 7-15 21h20c0-27 7-41 21-41v-20h-10zm-41 71c-5 1-17-4-15 5 5 4 10 15 15 5v-10zm142 71c-5-4-10-15-15-5-2 9 10 4 15 5zm-66 61c9 13 18 20 26 20v31c16 3 14-13 20-20-10-16-18-34-46-31zm-56 31c-3 5-11 6-10 15 3-5 11-6 10-15zM86-432v5l26 10-5-15H86zm173 0v20c3-3 4-6 11-5-4-5-1-16-11-15zm-112 30v10h21v-10h-21zm82 21c-3-10-14-26-21-16 2 10 11 14 21 16zm-36 30v10h36c1-9-10-6-15-10 1 9-3 1-6 0h-15zm-76 20v21h15c0-7 5-10 15-10v-11c-10 1-25 11-30 0zm-66 82c0 7-5 10-15 10 7 15 24 7 35 0v-10H51zm30 25c-13 0-20 5-20 16h20c-4-14 8-13 16-16-3-7-4-21-11-10-7-2-5 5-5 10zm219 26c0 7-5 10-15 10 13 12 20 24 20 35 25-2 15-45-5-45zm-76 10c-5 2-18-4-16 5 4 6 2 18 16 15v-20zm-41 41l-10 40 10 31-36 15c4 6 2 18 16 15-2-12 23-24 45-20v10c9 0 16 10 21 31h15l-10-36c29-3 5-40 5-51h10v-15c-32-2-15 39-15 61l-46-36c-4-21 7-26 10-40zm-25 61c2-22-44-22-41 0l25 10c0-7 5-10 16-10zM15-66v15c14-5 21-10 21-15H15" id="n"/><path d="M134-366c-1 9 7 10 10 15 0-10-3-15-10-15zm69-1077v11c-13-4-4 31-21 26l-20-6c-2 16 8 16 31 26 2 10 5 19 5 31-5 1-13-3-11 5 11 0 16 3 16 10h10l5-31c-5-8-17-9-15-25 13-2 24-6 40-5 6-13 18-34 0-41-12 0-20 3-30 5l-1-6h79c2 9 3 22 3 37 6-12 28-5 31 5v40h-15c9 5 3 18 0 26l15 25v822c2 67 31 116 88 147 2 11-13 13-16 5v10h41v10c22-2 43-5 67-5-1 67 3 140-2 204-5-8-33-8-40 0l-5-5v10l40 5c1 8-1 13-5 15l12 13v76c-8-2-66 15-62-12-9-1-6 10-10 15-42 0-86-5-131-21C139-80-1-223-1-455v-809c26-4 37 8 51 16 0-14 7-21 20-21-1-36 9-30 36-30l15 10c3-7 15-16 5-21H96v-10c-16 0-30-8-41-25l-10 15c24-2 12 23 15 41-17 0-36 2-41-10v-26c11 0 16-3 16-10-14 0-26-9-36-26v-61l19-21h76c-5 9-16 16-34 21 0 5-2 13 5 10 15-7 25-33 46-20v-11h92zm-163 72v-10H9v15zm260 16v-6c-11 0-21-7-31-20-11 0-13 10-20 15l15 26c16-5 25-17 36-15zm-138 5c5 0 12 2 10-5l-51-36v20c17 12 26 27 26 46 5 0 10-8 15-25zm31 71v-20c-5 2-19-4-16 5 2 8 2 19 16 15zm122 10c-13-7-18-23-41-20 0 9 14 15 41 20zm-92 21c2-13-5-16-10-21v21h10zm-92 0l-10-11c-30 10-47 20-51 31l5 5c17-17 35-25 56-25zm153 25v-25h-10v25h10zm-265 31c3-11 9-18 10-31l-20 5 5 26h5zm21 122v-46c-27-1-10 31-5 46h5zM433-61h25v-10c-14-2-20 3-25 10zm-5-56h25v-5l-25-5v10zm-36-168c2 10 5 19 5 31l41-11c0-10 2-22-5-25zm-10 163c5 3 6 11 15 10-5-3-6-11-15-10zm46-21c5-22 12-42 15-66l-46 16-15-11c0 25 15 46 46 61zm-61-162c-10 5 4 10 0 20 26 3 25-14 0-20zM317-41h11v-25h-11v25zm-10-147c1 26 23 39 60 45 6-2 7-13 0-15-36-11-55-21-55-30h-5zm-15-255l15 5c2-12-5-15-10-20zm-5 112c4 15 14 23 10 46l15 5c3-20 18-30 45-30v-6c-24-5-45-12-70-15zm-15 77c-1 4 10 14 25 15v-15h-25zm-31-92c-2 13-6 24-5 41h10c-1-16 3-28 5-41h-10zm-56 66h20c-1-11-14-9-20-15v15zm-15-178c-2 12-12 39 5 41 0-17 3-31 10-41-8-6-19-28-30-15zm-66 10c10 0 6-14 10-20h-10v20zm51 82v-16h-11c0 11 4 16 11 16zM22-632c-5 1-4 3-1 6zm303-811c2 9-6 7-5 16-12-1-20-7-24-16h29zM-1-1274v-51H9c-3 19 11 40 0 51H-1zm124 795c2 1 9 2 11 0h-11zm796 65c3-5 11-6 10-15-7 0-10 5-10 15zm37-1027v11c23-14 30 17 51 20v-10c-18-5-29-12-34-21h76l19 21v61c-10 17-22 26-36 26 0 7 5 10 16 10 1 16 1 31-10 36h-31c3-18-8-43 15-41l-10-15c-11 17-25 25-41 25v10c-12 1-31-4-35 5l10 16c8-9 22-12 41-10 7 0 10 10 10 30 13 0 20 7 20 21 14-8 25-20 51-16v809C1029-224 928-78 765-19 720-3 676 2 634 2c-4-5-1-16-10-15 4 27-54 10-62 12v-76c4-6 17-12 7-18v-10l40-5v-10c-7 8-36-9-45 5h-2v-204c24 0 45 3 67 5v-10h41v-10c-3 8-19 6-16-5 57-31 88-80 88-147v-822c9-14 19-25 10-45l5-6h-15c1-24-8-57 25-51l6 6c0-15 1-28 3-37h79l-1 6c-15-4-40-11-41 10l11 26c16-1 27 3 40 5 2 16-10 17-15 25l5 31h10c0-7 5-10 16-10 4-11-14 2-11-11l5-25c23-9 33-11 31-26-10 2-25 11-31 0 0-13-3-20-10-20v-11h92zm102 77v-15h-31v10zm-291 11c11-2 20 10 36 15l15-26c-7-5-9-14-20-15-10 13-20 20-31 20v6zm49 217c5 17 10 25 15 25 0-19 9-34 26-46v-20l-51 36c-2 7 5 5 10 5zm64-62c15 3 14-9 16-20h-16v20zm-87-89c-23-3-28 13-41 20 27-5 41-11 41-20zm61 41v-21c-5 5-12 8-10 21h10zm138 25l5-5c-4-11-21-21-51-31l-10 11c21 0 39 8 56 25zm-199 0v-25h-10v25h10zm260 31l5-26-20-5c1 13 7 20 10 31h5zm-21 122c4-15 16-30 6-46h-11v46h5zM705-130c-5-7-11-12-25-10v10h25zm118-452l-25 5v5h25v-10zM684-237c-15 1-37-10-46 0v20l41 11c0-12 3-21 5-31zm185-340c-9-1-10 7-15 10 9 1 10-7 15-10zm0-82l-15 11-46-16c3 24 10 44 15 66 31-15 46-36 46-61zM709-247c16-19-38 0-15 10h15v-10zm112 112h-11v25h11v-25zm123-503c1-4-1-6-5-5 0 9-18 19-55 30-8 3-6 17 5 15 33-7 52-21 55-40zM770-456c-5 5-12 8-10 20l15-5zm65 107c1-4-1-6-5-5l-65 15v6c27 0 42 10 45 30l15-5c-2-19 2-32 10-41zm15 72h-25c-11 26 27 8 25 0zm31-92h-10c2 13 6 24 5 41h10c1-16-3-28-5-41zm56 51c-6 6-19 4-20 15h20v-15zm-44-203c4-7 21-13 10-20-13 2-16 14-25 20 7 10 10 24 10 41 17-1 7-29 5-41zm66-10h-10c4 6 0 20 10 20v-20zm-40 86h-11v16c7 0 11-5 11-16zm126-185c0 6 2 7 4 2zm-274-811c-4 9-12 15-24 16 2-9-7-6-5-16h29zm297 169c-29 2-5-30-10-51h10v51zM940-542c-3 1-9-1-11 1 4 0 9 1 11-1" id="o"/><path d="M650-1434l5 5v223l-29 20c-1 9 10 6 15 10 0-12 4-16 14-15v10l-126 44-83 63-39-10c7 15 13 23 20 24 0-9 3-14 9-14v9c-55 67-91 151-106 253-2-6-11-5-20-5-2 14 26 3 20 25-2 41-2 60-20 58 14 11-5 33-19 19-15 12 9 20 19 10 12 12 23 62 34 151-7 4-8 14-19 14-4 6 11 8 9 0 17 0 25 15 25 44l-5 5c7 2 33 43 78 122 0 7 34 33 102 77l82 20c2 12-4 16-5 24-2-5-7-6-14-5v15c-15 2-8-6-5-15l-29-5c-10 29-28 44-54 44v10c12-1 16 10 15 24 6-3 25-2 15-10v-4c31 3 26-17 19-34 22-7 47-4 68 4v-4c16 6 26 11 15 19-1 4 1 6 5 5-15 8 7 29-5 34-9 1-10-7-15-10 0 7-5 10-15 10l-4 24c9 0 16-4 24-5 0 7 6 10 19 10 1 15-6 23-9 34-11 0-16-7-25-10-6 8-21 8-19 25h10c4 25-11 31-30 34v-15h10c3-13-7-12-14-14 19-24 29-42 29-54-7 0-19 13-34 39 2 2 8 6 0 5-8-8-23-14-29 0 0 9 6 14 19 14-7 12-3 25 0 39-3-2-4-6-10-5v5c10 0 17 11 20 34-5 0-12-2-10 5l-87-19 4-25c-14-3-31-15-39 0 0-15-6-20-19-19 0 13-6 19-19 19-59-18-128-68-209-150 1-9 7-20 0-25-9-1-10 7-15 10l-73-102 5-15c-22 2-34-41-68-131 0-29 11-44 34-44l-5-24c7 0 10 5 10 15 3-6 11-7 14 0v-15c14-2 20 3 25 10-4 6-21 12-10 19v10c-3-2-4-6-10-5l-5 34 25 5v-5c20 0 36 10 48 29-5 3-5 7 0 10h10l-10-29c9 0 13 3 20 5v-5c6 3 14 15 19 5h10v10c5-4 16-14 5-20-1-9 9-10 0-15h-5c0 15-6 21-20 20-20-19-30-33-43-15-44 11-50-49-15-63 2 2 6 8 5 0 8 2 18 15 24 5 1-6-3-7-5-10 2-8 15-18 5-24l5-5c-13 1-20 8-34 0 1 9-7 10-10 15v-5c-18 10-44 12-73 10v9c-45 6-38-9-43-73 12 6 18 18 39 15 1-14-3-23-5-34l14-15c-12 1-15 11-24 15-2-8-15-19-5-24L9-661c2 33 13 23 5 44-10 0-15-36-15-107 0-78 5-117 15-117-2-3-6-4-5-10 9-99 41-216 126-330 132-176 313-253 515-253zm676 627c5 17-33 6-29 29l34-14c-4 2-6 7-5 14 17-3 42 4 29 15-2 11 17 12 5 19 6 18 5 36 0 54-7 0-10-7-10-20h-19c1 18-2 31-5 44-12-4-23-6-34 0l5 15 19-10v10c12 2 16-3 25-5 0 8-3 13-5 19h24c0 129-45 278-165 418C1062-64 891 0 714 0v-10c9 0 14-3 14-9h-19v-68h9v-30c18-3 21 8 34 10l20-10c-10-19-29-26-29-58 0-35 13-54 39-58-5-3-5-7 0-10v-19l-25 4v-14l44-10c2 8-7 6-5 15h10c0-13 26-33 78-59 39-32 58-53 58-63h34c2-8-6-6-5-14-3 3-7 5-14 4-1-13 13-18 43-38 3-17-9-34 0-44 12-3 15 10 20 0 12-1 19 3 19 14h5v-19c-16-1-37 6-34-15l5-34c12-1 12 11 24 10-11-8 2-33 10-29v-10c-27 3-17-19-19-39 2-3 5-4 4-9 3 4 8 5 15 4 0-6 5-9 15-9l4-25h-9c1 16-7 22-25 20 5-39-2-66 20-59-5-18-20-25-15-53 5 0 12 2 10-5 5 9 27 5 24-10 7-2 5 5 5 10 24-1 51 2 68-5l59 15c18-19 34-33 48-15 4 1 6-1 5-5-10 0-15-3-15-9h5l-14-20c-3 9-21 17-54 25-3-7-17-16-24-5-21-3-1-28 0-39-13 3-35 18-49 5-3 2-3 6-9 5-5-7-24-10-59-10l-14-63c6 0 9-7 9-20l25-5-54-48c2-3 6-4 5-10l-58-97c-48-59-109-104-185-122-38-9-58-11-58-19v-243l9-10c149 0 300 50 433 170 93 84 137 168 151 229-10 7-15 27 0 34v-30c9 0 18 28 29 83h-10v-14c-7 0-10 10-10 29-10-4-5 24-14 29h-68c-14-9-22-24-39-29 8 3 4 19 5 29-13 6-27 12-49 10v-10h-10c-3 19 9 23 15 34-8 2-6-7-15-5v24l-63-19c-4 25 14 21 59 24-4 4 28 27 43 15 2 2 6 8 5 0 11 11 34-7 49 5l10-15c-10 0-15-8-15-24-12 4-23 6-34 0-2-24 5-39 24-44 2 10 15 22 5 29 0 5-2 12 5 10 0-9 11-15 34-20 6 2 5 11 5 20-9 0-14 8-15 24h10v-10c15 1 15-17 19-29-4 0-11 2-9-5 11-3 10 5 19 5l49-24c7 9 13 17 5 29 9 0 14 18 14 54l-14 24c-2-4-7-6-15-5zm-267-467c0 9 11 5 9 20h10v-20h-19zm-798 78c-13 4-27 4-24 24 14-7 22-15 24-24zm992 195c0 9-8 14-24 14v5c22 2 33-6 48-10v-9c-11-2-16 9-24 0zM101-972v10h15v-10h-15zm224 97c0 7-5 10-15 10 0 4-2 11 5 9l19-19h-9zm-98 10v9h15v-9h-15zm948 9c1 9-6 10-9 15-1-9 6-10 9-15zm-19 34c1 5-4 17 5 15l5-15h-10zm-1055 5c-2 12 9 25 15 15v-15h-15zm44 20v10c5-1 16 4 14-5zm1098 14c2 3 6 4 5 10 9-7 39-13 34 15 2 6 12 7 15 0l-5-29c-19-1-34 1-49 4zM67-778c-3 13 8 12 15 15 0-10-10-10-15-15zm967 0c8-11 26 4 39 5-14 7 7 24-5 29-23 0-34-11-34-34zm-855 10c-11-1-1 14 0 19-11 8-25 13-44 15 3-8-18-21-24-10v5c26 0 39 16 39 49-10-1-15 2-15 14-26 11-39 20-39 25 31-4 50-17 49-30l29-4c-1 8 7-4 15 0-6 2-6 11 0 14 4-13 27 5 14 10h24c0-8-3-13-4-20h9v10h15c-4-2-6-7-5-14 16 2 22 21 39 9-10-6-1-23 0-34h-29c0-4 2-11-5-9v9c-25-6-36-12-34-29-15 14-29-14-34-29zm1128 19l-5 25c11 12 32-9 34 9l14-4v-20h-4c0 10-3 15-10 15-13 0-20-8-20-25h-9zM82-715v15c7-3 17-2 14-15-2 5-12 7-14 0zm996 25c1 12-10 18-14 9-4-1-6 1-5 5 0 8 18 15 53 20-1 13 10 18 15 9v-4c-10 0-15-7-15-20-10 11-25 3-24-19h-10zM77-651v9h19c-5-4-8-11-19-9zm68 0c-10 0-6 13-10 19 8 1 11-8 10-19zm1103 0c-5 3-15 0-14 9h24zm-82 4c-12-2-18 17-25 5-9-1-10 6-9 15 8-12 28-2 34 5v-25zM135-627c-9 1-13 6-14 15zm1006 5c-14 1 9 21-5 24 22 6 13-12 5-24zm44 14l5 15h15c4-15-12-11-20-15zm146 0c-13-3-12 8-15 15h15v-15zM286-588c2 3 6 4 5 10l24-5c5-18-18-6-29-5zm-29 10l4 14 20-19c-11-1-17 3-24 5zm-39 4c-17 2-22 23-39 10-4-1-6 1-5 5 13 6 23 16 39 19-4-14-8-28 5-34zm846 10c-15-5-8 11-5 20h14zm-803 29c1 23-17 12-29 10 0 11-3-3-9 0-9 15-27 27-15 49h5c0-15 14-33 39-30 2 7-5 5-10 5l15 25c10-1 26 3 29-5 15 1 14 18 29 19-20-32-35-48-44-48v-25h-10zm832 15c-10-13-14 6-15 14 16 2 24-5 34-9-2-3-6-4-5-10-2 4-7 6-14 5zM23-515c10 0 17 3 25 5-3 10-9 17-20 19zm151 9c-5 10-5 20 0 30 9 1 6-10 10-15l14 5v-15zm-83 49c-7 16-33-13-34 10l49 29c1-19-2-28-15-39zm963 0c5 3 6 10 14 10-5-3-5-11-14-10zm-690 20c-5 3-16 0-15 9h15v-9zm666 29c-14 0-10 21-5 29 16 1 18-24 5-29zm92 0c-4 5-14 9-5 14l-5 5h15zm-724 9c-12 0-2 16 4 20l10-10zm-200 30l20 4 9-14c-15-2-24 2-29 10zm851-5c-2 10 9 9 19 9-1-9-13-5-19-9zm-49 5c-13 0-8 22-4 29 16-1 18-24 4-29zm-632 24c16 6-15 33 15 29 0-17-5-26-15-29zm39 24l-24 24 44-14c0-10-14-6-20-10zm-189 10c-1 15 12 28 24 10v-10c-6 9-13-5-24 0zm-78 29c1 5-4 17 5 15l14-5c-5-5-7-12-19-10zm180 0v20c10 0 6-14 10-20h-10zm223 0c-9-2 10 13-9 10v10c6-3 14-15 19-5 1-9-7-10-10-15zm-369 10c-10-2-7 23 5 19 0-8-3-13-5-19zm219 5c-2 30 2 51 34 53v-19zm-190 34c5 3 10 13 15 5v4l14-4-5-15c-14-2-19 4-24 10zm68 9c5 5 8 12 20 10l5-19c-11 0-16 6-25 9zm452 20c-19 0-16-29 5-24zm-471 5c9-1 13-6 14-15zm48-15v15h10v-15h-10zm15 20c10 4-2 7 0 14 6 9 13 12 24 5 0 5-2 12 5 10-1-14 36-4 29-29-15 18-34-3-58 0zm481 9c-5 1-16-4-14 5l14 5v-10zm-87 15h9c-1 18 5 43-9 48v-48zm-428 24c5 29 27 30 58 29v-5c-13-3-27-6-39 0 5-2 6-7 5-14zm97 5c-10 0-9 10-14 15 13 3 11-9 14-15zm530 5c-9 1-13 6-15 14 13 3 12-7 15-14zm-457 24c-2 11 9 10 20 10 0-10-14-6-20-10zm54 0l9 25h20v-10c-7 0-10-5-10-15h-19zm-146 10c-8-12-13 7-15 15 11 0 16-7 24-10 2-7-5-5-9-5zm141 19c-9-1-20-7-25 0-2 7 5 5 10 5-2 3-6 4-5 10h20v-15zm136 34c7-31 5-45 19-43-2 14 5 37-5 43v5zm155-4c2-12-9-25-14-15-3 13 7 12 14 15zM587-29c17-12 63-27 63 10l5 14c-16 1-29 3-44 5-1-12-10-16-14-24-3 2-4 6-10 5v-10" id="p"/><path d="M5-1434h305c51 72 100 155 148 249h-11c33 32 64 74 92 127 2 14-6 18-10 26 16 0 26 13 15 20 31 3 46 20 46 51-8 17-43 7-66 10v10h-36v10c-39-3-61 10-91 16v-5c-18 2-42 18-51 0h-15c0 12-5 16-16 15-13-26-30-47-40-76h10c-2 19 41 17 51 5 6 13 21 8 35 5v-10c-18 0-33-9-46-26l-25-5v-10h-15v10c-26 1-36 2-36-30-15 0-35-38-76-107-97-165-158-258-168-285zM1376-6c-7 8-36 7-41 0 6-108 5-222 5-336 17-20 35-30 56-30-9-8-12-22-10-41l-41-10c2-20-6-50 10-56l-10-15c-1-101 1-199 5-295 0-24 48-110 143-259 5 9 10-1 15-5h-10l152-270h11v870c0 7-7 10-21 10v5c14 0 21 3 21 10v361c0 7-9 10-26 10v10h26c0 19 4 42-11 46-67-2-143 5-203-5-17 7-43 5-66 5zm173-30c2-13-5-16-10-21v21h10zM208-1368c-1 9 8 10 11 15 1-9-8-10-11-15zM1483-77c-9-2-24 1-11 10zM0-1335h10l173 295c-7 0-10 5-10 15-21 0-31 12-31 35l-45-5c2 17-16 19-56 31-5 3-6 11-16 10-9-8-11-22-25-25v-356zM1554-128c10 3 15 11 30 10-10-5-13-17-30-15v5zm-56-10v-10h-26v10h26zm-51-26l-15-15c-2 7-5 11-5 20zm142-86c15-2 24-10 36-15 2-9-10-4-15-5-7 0-10 5-10 15-5 1-13-3-11 5zm-81-41v-20l-10 10zM427-1103c-1-11-14-26-20-16-4 21 11 33 20 16zm918 746c-8-14-11-55 21-46 23 14-1 42-21 46zm-938-706v41c-16 2-22 6-21 20h31c0 21 7 31 20 31v-16c12 2 21 7 36 6l30-21c-11-9-4-25 16-25v-5h-56c-31-9-46-20-46-31h-10zm1198 681c12 0 20-3 30-5 1-4-1-6-5-5l-25 5v5zM483-1022c6 24-15 39-25 20zm-295 53c8-5 10-18 26-15l15 20c-8 4-12 12-26 10zm-81-5c31 11 25 24 15 46 7 0 10-5 10-16 20 1 38 0 46-10 9-1 10 7 15 10-3 7-10 11-10 21 21 1 37-15 36-21h15c21 16 31 31 30 56-37 3-59 8-66 15h-56c0 7-8 11-25 11l-15 15c-13-2-25-6-41-5-16 7-44 34-61 10 2-16-5-42 5-51-8-3-4-19-5-30 9 0 19 10 10 15v5l36 5c0-7 12-12 35-15l-5-26h31c-1-13-7-20-10-30 6 1 7-3 10-5zM804-98c-58-93-150-254-285-477-80-131-127-204-133-223 5-1 13 3 11-5-8-1-14 0-16 5-23-37-35-61-35-72h40v11c20-1 36 1 51 5l5-21c16 4 35 6 56 5l31-20c7 3 10 10 20 10-5-17 34-42 61-30 0-5-2-12 5-10 24 23 36 43 36 61-9 0-14 7-15 20 7 3 10 10 20 10-6-2-5-11-5-20h15l138 232v519zm663-427c-5-3-6-11-15-10v10h15zm-91-30c-1 16 30 10 25-5zM239-842c14 2 21-2 31-5 3 32 18 55 35 41 8 18 12 38 10 66h-20v10h20l2 727H46C32-8 19-8 5-3L0-8v-773c8-39 52-24 76-41 33 5 58 27 56 31 20-12 37 4 36 30 10-2 16-7 15-20-13-13-20-23-20-31-20 1-36-1-51-5-2-16 10-17 15-25h66v10h21c3-12-6-11-6-20l31-15v25zm41-10c23-1 29 15 30 35-21-3-30-18-30-35zm229 23v10h15v-10h-15zm-280 12c-2 13-6 25-5 41 16 0 19-12 20-30zm341 19c-5 4-17 0-16 10 9 2 16 5 26 5 1-9-7-10-10-15zm0 20v15c3-5 11-6 10-15h-10zm81 30c23 4 21-16 30-25-15-1-20 7-30 25zm-26 0v6h21v-6h-21zm-574 8c13 15 20 28 20 40h5c13-13 23-20 31-20v-10c-10 0-15-3-15-10H51zm142 10c0 15-17 24-51 25v26h5c13-14 27-21 41-21 0-13 5-20 15-20v-10h-10zm97 30c-18-5-7 17 5 16zm-87 11v10h31v-10h-31zm529 3c-14-2-13 9-15 20 10-2 16-7 15-20zm-610 12c-7-2-16-8-20 0v5h20v-5zm41 35c16 1 29 0 30-15-20 3-30 8-30 15zm549 34h15c4-16-10-8-15 0zM51-578c-1 13 4 19 15 21-10-5-1-13 0-21H51zm1543-313c4-16-10-8-15 0h15zM671-493c-4 16 10 8 15 0h-15zm543-512c-6 11-19 12-25 0v-20zm250-333c-3 5-12 6-11 15 3-5 12-6 11-15zM912-278c5 3 6 11 15 10v-10h-15zm60-259c-5-3-6-11-15-10v10h15zm38-124c-1 13 4 18 15 20-2-10 0-23-15-20zm16-90v6h21v-6h-21zm-5 0c-10-18-15-26-30-25 9 9 7 29 30 25zm81-30c-16-4-8 10 0 15v-15zm16-15c-12-6-25-5-26 10 10 0 17-3 26-5v-5zm30-36v10h15v-10h-15zm70-191c13-9 10-12-9-12h-56v5c19 0 27 15 16 25 16 15 39 28 66 15v16c13 0 20-10 20-31h31v-5c-20-1-46-2-58-13h-10zm91-110c-11 7-22 23-5 31 8-3 16-23 5-31zm-226 192c16-7 55-13 65-9v-4c-23-3-58 7-66-10 0-31 15-48 46-51-11-7-1-20 15-20-4-8-12-12-10-26 28-53 59-95 92-127h-11c48-94 97-177 148-249h305c-10 27-71 120-168 285-41 69-61 107-76 107 0 20-5 30-15 30l-21 25v-10h-15v10c-22 6-41 6-71 6v10c14 3 29 8 35-5 10 12 53 14 51-5 5 0 12-2 10 5-48 78-32 77-106 178-2-5-8-6-16-5-2 8 6 4 11 5-6 19-53 92-133 223-135 223-227 384-285 477v-519l138-232h15c0 9 1 18-5 20 10 0 13-7 20-10-1-13-6-20-15-20 0-18 19-48 57-89 7-2 5 5 5 10zm261 29c-2-3-3-6-3-11-11-1-19 1-22 7zm-45-5l-24-6v5c-30-6-52-19-91-16-1-3 3-11-3-10l6 25c21 1 40-1 56-5l5 21c15-4 31-6 51-5v-9zm-122-27h-19c0 12 12 7 19 0" id="q"/><path d="M598-1477h26l-36 26c0-12 7-17 10-26zm-588 36h133c3 5 7 5 10 0h128c1 12-11 13-10 25 15-5 44-27 41 16l15 5v685c-8 1-12-13-20 0 2 13 14 16 20 25v46h-10c2-3 6-4 5-10h-15c0 25-9 46-26 61h-25v26c10 0 15 8 15 25 22 3 17-9 31-41l25-5v573c-9 18-31 5-41-5h-5c2 20-15 14-31 15-7 0-10-5-10-15h-30c6 16-83 20-108 10-22 8-58 4-87 5C10-8-5-10 0-26c18-58 38-86 51-86 1-10-7-11-10-16v16l-26-6c1 16-3 28-5 41H0v-511c0-7 15-10 46-10l10-15c-13-11-15-50 0-62-1-5 4-17-5-15 0 9-8 15-25 20l5 6-11 51c-13 2-14-6-20-11v-281h26c1-18-13-23-26-15v-383c6-14 26-10 36 0 0-13-19-24-5-36v-5H0v-87zm378 0h220c193 0 332 53 419 158 2-2 6-8 5 0l-5 5c122 168 126 444 0 598-16-5-8 12-5 21-14 9-23 24-41 30v-10c-18-2-15 19-10 31-71 75-226 112-465 112H388l-10-10v-128l10-15-10-10v-97l10-11h195c24-4 34 17 61 16 0-9-3-14-5-21 110-38 168-109 153-230-14-113-84-168-184-168-7-20-61-6-82-5-2-3-6-5-5-11-19 9-36 21-61 11-2-9 6-7 5-16-17-1-21 11-31 16-21-2-51 6-56-11v-245zm-322 36c15 1 21-6 21-21-12 2-13 15-21 21zm-30 56c16-1 41 10 51 0v-16H51zm961 10c8-7 8-22 25-20 0 7 5 10 15 10v15c-13 1-20 0-20-15-7-2-5 5-5 10h-15zm-951 97c10 5 0 13 0 21 11 3 18 9 31 10-1-13-8-20-11-31H46zm-31 21l5 25c7-5 14-10 11-25H15zm486 10c5 4 10 15 15 5 2-9-10-4-15-5zm-394 20c9 6-5 15 0 26 13-2 25-6 41-5-2-11-16-27-25-16-2-5-8-6-16-5zm399 21v15c-16 4-8-10 0-15zm-419 20v31c19-21 25 45-5 36 3-17-26-17-46-16v10c27 0 51 21 71 62h26v-5c-17 0-29-9-36-26 0-21 12-31 36-31l-10-30c-14 0-21-12-21-36zm731 31l5 30h10c-11-7 2-21 5-30h-20zm-660 20c-13 1 7 12-5 16v10c17 1 22-19 5-26zm762 21c5 4 10 15 15 5 2-9-10-4-15-5zm-818 81c-5-1-6 2-5 6l15 25h26zm220 41c-5-8-19-17-15 0h15zm644-10v10h31c1 5-3 13 5 11 1-20-15-21-36-21zM526-716c-10 4-10-30-30-25-5 0-11 7-16 20l41 16c3-3 6-4 5-11zm-107-15c-23 11-33 12-31 26h31c0 21 15 36 46 46 3-3 6-4 5-11-25 5-40-33-20-46-9-9-16-20-31-10v-5zm-169 21c10 6 11 34-10 30-2 3-6 4-5 10h26v-40h-11zm348 0c-1 15 7 20 10 30l21-5-11-25h-20zm-363 10c-15 1-37-10-46 0v15c5-10 21 0 31 0zm-66 30c0 24-4 52 10 62 23-7 33-7 31-21l-26 5c-12-10-10-29-5-46h-10zm342 21v15h10v-15h-10zm26 20v5h25v-5h-25zm-11 16v15c3-5 12-6 11-15h-11zm-306 15c-1 18 14 20 20 31 4 1 6-1 5-5-22 2 1-19 5-26h-30zM77-572c-9 1-15 6-16 15 9-1 15-6 16-15zm25 46c-5 1-17-4-15 5 7 8 10 20 10 35 10-13 22 6 31 11 2-28-18-34-26-51zm-15 51v15c16 4 8-10 0-15zm153 25c-12 1-4 28 10 26 2-14-3-21-10-26zm-107 5v11h31v-11h-31zm87 21c-3 12-11 19-10 36 14-7 27-25 15-36h-5zM92-399c15-1 27-10 26-15-16-3-18 9-26 15zm0 11l-15 35c13 18 36 4 56 0v-5c-24-9-36-19-36-30h-5zm102 25c-5-4-10-15-15-5-2 9 10 4 15 5zm87 15c-18 6-41 7-66 6-2 6 23 16 56 20 7-5 12-12 10-26zm-107 92c-12 1-4 28 10 26l10-10c-13 0-20-5-20-16zm112 36c-9-2-3 11-5 16 8 2 16 8 21 0 1-11-11-10-16-16zm-25 36c2 40-21 31-46 26 0 10-4 15-11 15v5l26 10c17-7 26-13 26-20 8-2 6 7 15 5 1-14 4-21 10-21-3-10-9-17-20-20zM66-158c-13-1-18 5-20 15h20v-15zm57 71c23 9 35 19 35 31h6c17-14 30-21 40-21-9-21-58 1-71-20zm148 0c-12 5-10 24-10 41 15-5 16-25 10-41zm20 10c-3 6-11 7-10 16 3-6 11-7 10-16zM97-46c-22-4-38 8-25 26 17-9 26-12 25-26" id="r"/><g id="b"><use transform="matrix(0.01953125,0,0,0.01953125,0,0)" xlink:href="#n"/><use transform="matrix(0.01953125,0,0,0.01953125,26.03515625,0)" xlink:href="#o"/><use transform="matrix(0.01953125,0,0,0.01953125,48.3984375,0)" xlink:href="#h"/><use transform="matrix(0.01953125,0,0,0.01953125,70.76171875,0)" xlink:href="#p"/><use transform="matrix(0.01953125,0,0,0.01953125,98.45703125,0)" xlink:href="#j"/><use transform="matrix(0.01953125,0,0,0.01953125,125.25390625,0)" xlink:href="#p"/><use transform="matrix(0.01953125,0,0,0.01953125,152.94921875,0)" xlink:href="#q"/><use transform="matrix(0.01953125,0,0,0.01953125,187.0703125,0)" xlink:href="#r"/><use transform="matrix(0.01953125,0,0,0.01953125,209.86328125,0)" xlink:href="#e"/><use transform="matrix(0.01953125,0,0,0.01953125,232.40234375,0)" xlink:href="#k"/><use transform="matrix(0.01953125,0,0,0.01953125,254.47265625,0)" xlink:href="#h"/><use transform="matrix(0.01953125,0,0,0.01953125,276.8359375,0)" xlink:href="#k"/></g><path d="M598-1477h26l-36 26c0-12 7-17 10-26zm-588 36h133c3 5 7 5 10 0h128c1 12-11 13-10 25 15-5 44-27 41 16l15 5v685c-8 1-12-13-20 0 2 13 14 16 20 25v46h-10c2-3 6-4 5-10h-15c0 25-9 46-26 61h-25v26c10 0 15 8 15 25 22 3 17-9 31-41l25-5v573c-9 18-31 5-41-5h-5c2 20-15 14-31 15-7 0-10-5-10-15h-30c6 16-83 20-108 10-22 8-58 4-87 5C10-8-5-10 0-26c18-58 38-86 51-86 1-10-7-11-10-16v16l-26-6c1 16-3 28-5 41H0v-511c0-7 15-10 46-10l10-15c-13-11-15-50 0-62-1-5 4-17-5-15 0 9-8 15-25 20l5 6-11 51c-13 2-14-6-20-11v-281h26c1-18-13-23-26-15v-383c6-14 26-10 36 0 0-13-19-24-5-36v-5H0v-87zm378 0h220c193 0 332 53 419 158 2-2 6-8 5 0l-5 5c61 93 92 191 92 292v517c0 117-31 212-92 286-16-5-8 12-5 21-14 9-23 24-41 30v-10c-18-2-15 19-10 31C900-36 745 1 506 1H388L378-9v-128l10-15-10-10v-97l10-11h195c24-4 34 17 61 16 0-9-3-14-5-21 102-33 153-101 153-204v-523c-23-112-84-168-184-168-7-20-61-6-82-5-2-3-6-5-5-11-19 9-36 21-61 11-2-9 6-7 5-16-17-1-21 11-31 16-21-2-51 6-56-11v-245zm-322 36c15 1 21-6 21-21-12 2-13 15-21 21zm-30 56c16-1 41 10 51 0v-16H51zm961 10c8-7 8-22 25-20 0 7 5 10 15 10v15c-13 1-20 0-20-15-7-2-5 5-5 10h-15zm-951 97c10 5 0 13 0 21 11 3 18 9 31 10-1-13-8-20-11-31H46zm-31 21l5 25c7-5 14-10 11-25H15zm486 10c5 4 10 15 15 5 2-9-10-4-15-5zm-394 20c9 6-5 15 0 26 13-2 25-6 41-5-2-11-16-27-25-16-2-5-8-6-16-5zm399 21v15c-16 4-8-10 0-15zm-419 20v31c19-21 25 45-5 36 3-17-26-17-46-16v10c27 0 51 21 71 62h26v-5c-17 0-29-9-36-26 0-21 12-31 36-31l-10-30c-14 0-21-12-21-36zm731 31l5 30h10c-11-7 2-21 5-30h-20zm-660 20c-13 1 7 12-5 16v10c17 1 22-19 5-26zm762 21c5 4 10 15 15 5 2-9-10-4-15-5zm-818 81c-5-1-6 2-5 6l15 25h26zm220 41c-5-8-19-17-15 0h15zm644 487v10h31c1 5-3 13 5 11 1-20-15-21-36-21zM526-219c-10 4-10-30-30-25-5 0-11 7-16 20l41 16c3-3 6-4 5-11zm-107-15c-23 11-33 12-31 26h31c0 21 15 36 46 46 3-3 6-4 5-11-25 5-40-33-20-46-9-9-16-20-31-10v-5zM250-710c10 6 11 34-10 30-2 3-6 4-5 10h26v-40h-11zm348 497c-1 15 7 20 10 30l21-5-11-25h-20zM235-700c-15 1-37-10-46 0v15c5-10 21 0 31 0zm-66 30c0 24-4 52 10 62 23-7 33-7 31-21l-26 5c-12-10-10-29-5-46h-10zm342 518v15h10v-15h-10zm26 20v5h25v-5h-25zm-11 16v15c3-5 12-6 11-15h-11zM220-598c-1 18 14 20 20 31 4 1 6-1 5-5-22 2 1-19 5-26h-30zM77-572c-9 1-15 6-16 15 9-1 15-6 16-15zm25 46c-5 1-17-4-15 5 7 8 10 20 10 35 10-13 22 6 31 11 2-28-18-34-26-51zm-15 51v15c16 4 8-10 0-15zm153 25c-12 1-4 28 10 26 2-14-3-21-10-26zm-107 5v11h31v-11h-31zm87 21c-3 12-11 19-10 36 14-7 27-25 15-36h-5zM92-399c15-1 27-10 26-15-16-3-18 9-26 15zm0 11l-15 35c13 18 36 4 56 0v-5c-24-9-36-19-36-30h-5zm102 25c-5-4-10-15-15-5-2 9 10 4 15 5zm87 15c-18 6-41 7-66 6-2 6 23 16 56 20 7-5 12-12 10-26zm-107 92c-12 1-4 28 10 26l10-10c-13 0-20-5-20-16zm112 36c-9-2-3 11-5 16 8 2 16 8 21 0 1-11-11-10-16-16zm-25 36c2 40-21 31-46 26 0 10-4 15-11 15v5l26 10c17-7 26-13 26-20 8-2 6 7 15 5 1-14 4-21 10-21-3-10-9-17-20-20zM66-158c-13-1-18 5-20 15h20v-15zm57 71c23 9 35 19 35 31h6c17-14 30-21 40-21-9-21-58 1-71-20zm148 0c-12 5-10 24-10 41 15-5 16-25 10-41zm20 10c-3 6-11 7-10 16 3-6 11-7 10-16zM97-46c-22-4-38 8-25 26 17-9 26-12 25-26" id="s"/><g id="c"><use transform="matrix(0.01953125,0,0,0.01953125,0,0)" xlink:href="#s"/><use transform="matrix(0.01953125,0,0,0.01953125,23.14453125,0)" xlink:href="#k"/><use transform="matrix(0.01953125,0,0,0.01953125,45.21484375,0)" xlink:href="#q"/><use transform="matrix(0.01953125,0,0,0.01953125,79.3359375,0)" xlink:href="#p"/></g></defs></g></svg>